<?xml version="1.0" encoding="utf-8"?>
<!-- Generator: Adobe Illustrator 16.0.0, SVG Export Plug-In . SVG Version: 6.00 Build 0)  -->
<svg version="1.2" baseProfile="tiny" id="Layer_1" xmlns="http://www.w3.org/2000/svg" xmlns:xlink="http://www.w3.org/1999/xlink"
	 x="0px" y="0px" width="800px" height="800px" viewBox="0 0 800 800" xml:space="preserve">
<g>
	<path fill="#091946" d="M400.002,399.999"/>
	<polygon fill="#969395" points="532.613,471.563 532.613,455.051 535.574,455.051 535.574,462.561 542.018,455.051 
		545.594,455.051 538.536,463.105 545.855,471.563 542.206,471.563 535.574,463.839 535.574,471.563 	"/>
	<path fill="#969395" d="M551.544,465.805h4.879l-2.44-5.378L551.544,465.805z M545.833,471.563l8.173-17.315l8.15,17.315h-3.151
		l-1.468-3.196h-7.109l-1.467,3.196H545.833z"/>
	<path fill="#969395" d="M567.416,463.034h3.15c1.61,0,2.724-1.114,2.724-2.702c0-1.515-1.065-2.604-2.486-2.604h-3.388V463.034z
		 M564.454,471.563v-16.512h6.421c1.492,0,2.749,0.497,3.791,1.515c1.042,0.995,1.563,2.229,1.563,3.721
		c0,2.156-1.208,3.932-3.01,4.692l4.004,6.584h-3.34l-3.53-5.873h-0.045h-2.892v5.873H564.454z"/>
	<path fill="#969395" d="M583.314,465.805h4.88l-2.442-5.378L583.314,465.805z M577.604,471.563l8.173-17.315l8.15,17.315h-3.15
		l-1.47-3.196H582.2l-1.469,3.196H577.604z"/>
	<path fill="#969395" d="M599.187,468.886h2.749c4.098,0,5.897-2.155,5.897-5.544c0-3.48-1.775-5.614-5.923-5.614h-2.724V468.886z
		 M596.225,471.563v-16.512h5.899c2.724,0,4.857,0.757,6.372,2.298c1.54,1.518,2.298,3.507,2.298,5.993
		c0,2.489-0.758,4.478-2.272,5.973c-1.517,1.491-3.65,2.248-6.374,2.248H596.225z"/>
	<polygon fill="#969395" points="613.59,471.563 613.59,455.051 624.11,455.051 624.11,457.728 616.552,457.728 616.552,461.662 
		623.636,461.662 623.636,464.336 616.552,464.336 616.552,468.886 624.274,468.886 624.274,471.563 	"/>
	<polygon fill="#969395" points="627.285,471.563 627.285,454.435 638.537,465.476 638.537,455.051 641.499,455.051 
		641.499,472.179 630.245,461.186 630.245,471.563 	"/>
	<path fill="#969395" d="M645.242,455.051h2.962v16.512h-2.962V455.051z M645.196,452.278c0-0.826,0.687-1.469,1.514-1.469
		c0.854,0,1.541,0.643,1.541,1.469c0,0.853-0.687,1.491-1.541,1.491C645.883,453.77,645.196,453.131,645.196,452.278"/>
	<polygon fill="#969395" points="650.596,471.563 659.931,457.728 652.324,457.728 652.324,455.051 664.952,455.051 
		655.643,468.886 664.597,468.886 664.597,471.563 	"/>
	<polygon fill="#969395" points="535.739,499.991 535.739,486.155 531.263,486.155 531.263,483.482 543.179,483.482 
		543.179,486.155 538.701,486.155 538.701,499.991 	"/>
	<polygon fill="#969395" points="545.478,499.991 545.478,483.482 555.996,483.482 555.996,486.155 548.438,486.155 
		548.438,490.091 555.522,490.091 555.522,492.768 548.438,492.768 548.438,497.314 556.161,497.314 556.161,499.991 	"/>
	<polygon fill="#969395" points="559.172,499.991 559.172,483.482 562.132,483.482 562.132,490.989 568.576,483.482 
		572.152,483.482 565.095,491.536 572.412,499.991 568.764,499.991 562.132,492.271 562.132,499.991 	"/>
	<polygon fill="#969395" points="574.546,499.991 574.546,482.866 585.8,493.903 585.8,483.482 588.763,483.482 588.763,500.607 
		577.508,489.616 577.508,499.991 	"/>
	<path fill="#969395" d="M592.505,483.482h2.963v16.513h-2.963V483.482z M592.458,480.711c0-0.83,0.687-1.472,1.515-1.472
		c0.854,0,1.54,0.642,1.54,1.472c0,0.852-0.686,1.491-1.54,1.491C593.145,482.202,592.458,481.563,592.458,480.711"/>
	<polygon fill="#969395" points="599.232,499.991 599.232,483.482 602.194,483.482 602.194,490.989 608.64,483.482 612.216,483.482 
		605.156,491.536 612.476,499.991 608.827,499.991 602.194,492.271 602.194,499.991 	"/>
	<path fill="#969395" d="M632.187,479.548c0.828,0,1.492,0.64,1.492,1.469c0,0.783-0.664,1.445-1.492,1.445
		c-0.83,0-1.516-0.662-1.516-1.445C630.671,480.188,631.356,479.548,632.187,479.548 M627.26,479.548
		c0.828,0,1.518,0.64,1.518,1.469c0,0.783-0.689,1.445-1.518,1.445s-1.493-0.662-1.493-1.445
		C625.767,480.188,626.432,479.548,627.26,479.548 M623.019,483.479h2.963v9.882c0,2.842,1.397,4.218,3.741,4.218
		c2.299,0,3.719-1.376,3.719-4.218v-9.882h2.962v10.188c0,2.111-0.615,3.744-1.871,4.884c-1.256,1.136-2.842,1.702-4.81,1.702
		c-1.966,0-3.576-0.566-4.831-1.702c-1.257-1.14-1.873-2.772-1.873-4.884V483.479z"/>
	<polygon fill="#969395" points="639.935,499.991 639.935,482.866 651.188,493.903 651.188,483.482 654.15,483.482 654.15,500.607 
		642.896,489.616 642.896,499.991 	"/>
	<path fill="#969395" d="M657.895,483.482h2.962v16.513h-2.962V483.482z M657.846,480.711c0-0.83,0.687-1.472,1.516-1.472
		c0.854,0,1.541,0.642,1.541,1.472c0,0.852-0.687,1.491-1.541,1.491C658.532,482.202,657.846,481.563,657.846,480.711"/>
	<polygon fill="#969395" points="671.231,500.703 663.295,483.482 666.447,483.482 671.231,494.236 676.041,483.482 
		679.191,483.482 	"/>
	<polygon fill="#969395" points="681.513,499.991 681.513,483.482 692.032,483.482 692.032,486.155 684.474,486.155 
		684.474,490.091 691.559,490.091 691.559,492.768 684.474,492.768 684.474,497.314 692.199,497.314 692.199,499.991 	"/>
	<path fill="#969395" d="M698.169,491.464h3.15c1.61,0,2.723-1.112,2.723-2.7c0-1.515-1.065-2.608-2.485-2.608h-3.388V491.464z
		 M695.207,499.991v-16.509h6.42c1.492,0,2.75,0.497,3.792,1.515c1.042,0.994,1.562,2.227,1.562,3.718
		c0,2.156-1.206,3.934-3.009,4.692l4.003,6.584h-3.34l-3.53-5.873h-0.045h-2.891v5.873H695.207z"/>
	<path fill="#969395" d="M709.421,495.422c1.492,1.468,3.293,2.203,5.355,2.203c1.988,0,3.172-0.926,3.172-2.039
		c0-0.688-0.26-1.208-0.78-1.609c-0.497-0.401-1.468-0.899-2.915-1.495c-2.842-1.206-4.383-2.51-4.383-4.88
		c0-1.35,0.522-2.414,1.565-3.196c1.042-0.808,2.368-1.209,3.979-1.209c1.54,0,2.89,0.379,4.004,1.136v3.009
		c-1.114-0.971-2.417-1.444-3.934-1.444c-1.682,0-2.653,0.688-2.653,1.705c-0.094,0.547,0.403,1.021,0.806,1.377
		c0.213,0.188,0.949,0.543,1.209,0.661l0.782,0.355c0.379,0.168,0.64,0.261,0.758,0.332c1.587,0.686,2.723,1.421,3.435,2.203
		c0.711,0.78,1.066,1.802,1.066,3.056c0,1.35-0.521,2.464-1.563,3.365c-1.044,0.876-2.513,1.327-4.383,1.327
		c-2.11,0-3.957-0.569-5.521-1.684V495.422z"/>
	<path fill="#969395" d="M723.66,483.482h2.961v16.513h-2.961V483.482z M723.612,480.711c0-0.83,0.687-1.472,1.517-1.472
		c0.854,0,1.539,0.642,1.539,1.472c0,0.852-0.686,1.491-1.539,1.491C724.299,482.202,723.612,481.563,723.612,480.711"/>
	<polygon fill="#969395" points="733.515,499.991 733.515,486.155 729.039,486.155 729.039,483.482 740.955,483.482 
		740.955,486.155 736.477,486.155 736.477,499.991 	"/>
	<polygon fill="#969395" points="743.253,499.991 743.253,483.482 753.771,483.482 753.771,486.155 746.215,486.155 
		746.215,490.091 753.298,490.091 753.298,492.768 746.215,492.768 746.215,497.314 753.938,497.314 753.938,499.991 	"/>
	<path fill="#969395" d="M756.165,495.422c1.492,1.468,3.293,2.203,5.354,2.203c1.99,0,3.175-0.926,3.175-2.039
		c0-0.688-0.261-1.208-0.783-1.609c-0.496-0.401-1.468-0.899-2.914-1.495c-2.841-1.206-4.382-2.51-4.382-4.88
		c0-1.35,0.521-2.414,1.563-3.196c1.043-0.808,2.369-1.209,3.981-1.209c1.539,0,2.89,0.379,4.003,1.136v3.009
		c-1.113-0.971-2.417-1.444-3.934-1.444c-1.682,0-2.653,0.688-2.653,1.705c-0.095,0.547,0.402,1.021,0.807,1.377
		c0.212,0.188,0.945,0.543,1.207,0.661l0.783,0.355c0.378,0.168,0.639,0.261,0.757,0.332c1.587,0.686,2.725,1.421,3.436,2.203
		c0.712,0.78,1.066,1.802,1.066,3.056c0,1.35-0.521,2.464-1.563,3.365c-1.043,0.876-2.513,1.327-4.382,1.327
		c-2.11,0-3.957-0.569-5.521-1.684V495.422z"/>
	<path fill="#969395" d="M770.403,483.482h2.962v16.513h-2.962V483.482z M770.355,480.711c0-0.83,0.688-1.472,1.515-1.472
		c0.854,0,1.54,0.642,1.54,1.472c0,0.852-0.686,1.491-1.54,1.491C771.043,482.202,770.355,481.563,770.355,480.711"/>
	<polygon fill="#969395" points="404.178,499.989 404.178,462.404 397.806,462.404 397.806,455.132 412.221,455.132 
		412.221,499.989 	"/>
	<path fill="#969395" d="M443.887,470.063c0-2.315-0.837-4.311-2.511-5.921c-1.609-1.607-3.604-2.445-5.921-2.445
		c-2.252,0-4.248,0.838-5.922,2.445c-1.609,1.61-2.444,3.605-2.444,5.921c0,2.318,0.835,4.313,2.444,5.987
		c1.674,1.606,3.67,2.445,5.922,2.445C440.54,478.496,443.887,474.891,443.887,470.063 M426.381,499.989l10.168-15.059
		c-0.706,0.257-1.608,0.385-2.574,0.385c-3.668,0-7.015-1.414-10.104-4.184c-3.09-2.829-4.634-6.498-4.634-10.938
		c0-4.377,1.608-8.109,4.763-11.199c3.152-3.091,7.015-4.634,11.455-4.634c4.633,0,8.495,1.543,11.584,4.569
		c3.09,3.024,4.634,6.756,4.634,11.134c0,2.382-0.578,4.697-1.672,6.951c-1.095,2.187-2.832,5.083-5.277,8.751l-9.397,14.224
		H426.381z"/>
	<path fill="#969395" d="M460.04,487.955c1.544,3.347,5.084,5.472,9.012,5.472c2.444,0,4.503-0.838,6.241-2.445
		c1.736-1.61,2.575-3.672,2.575-6.051c0-2.509-0.967-4.504-2.832-6.114c-1.867-1.607-4.184-2.382-6.951-2.382
		c-4.506,0-8.302,0.966-11.327,2.96l4.184-24.263h21.817v7.272h-15.702L465.704,470c1.221-0.388,2.574-0.581,4.054-0.581
		c4.44,0,8.239,1.545,11.326,4.569c3.155,3.024,4.699,6.695,4.699,10.942c0,4.377-1.607,8.109-4.892,11.196
		c-3.281,3.09-7.208,4.637-11.84,4.637c-6.76,0-12.745-3.604-15.576-9.077L460.04,487.955z"/>
	<path fill="#969395" d="M495.758,487.955c1.545,3.347,5.084,5.472,9.012,5.472c2.446,0,4.504-0.838,6.241-2.445
		c1.738-1.61,2.574-3.672,2.574-6.051c0-2.509-0.965-4.504-2.831-6.114c-1.866-1.607-4.184-2.382-6.951-2.382
		c-4.506,0-8.302,0.966-11.327,2.96l4.184-24.263h21.817v7.272h-15.702L501.422,470c1.222-0.388,2.574-0.581,4.055-0.581
		c4.44,0,8.237,1.545,11.325,4.569c3.155,3.024,4.698,6.695,4.698,10.942c0,4.377-1.606,8.109-4.89,11.196
		c-3.283,3.09-7.209,4.637-11.841,4.637c-6.759,0-12.744-3.604-15.576-9.077L495.758,487.955z"/>
	<polygon fill="#04294B" points="397.806,436.535 397.806,292.841 429.554,292.841 429.554,357.369 480.889,292.841 
		519.233,292.841 461.511,363.347 521.5,436.535 482.744,436.535 429.554,370.976 429.554,436.535 	"/>
	<polygon fill="#04294B" points="565.824,436.815 565.824,321.984 526.86,321.984 526.86,293.122 635.92,293.122 635.92,321.984 
		597.573,321.984 597.573,436.815 	"/>
	<path fill="#04294B" d="M718.779,270.65c0-8.04,6.804-14.431,15.051-14.431c8.039,0,14.842,6.391,14.842,14.431
		c0,7.626-6.803,14.226-14.842,14.226C725.583,284.876,718.779,278.277,718.779,270.65 M675.897,270.65
		c0-8.04,6.804-14.431,14.844-14.431c8.247,0,15.05,6.391,15.05,14.431c0,7.626-6.803,14.226-15.05,14.226
		C682.701,284.876,675.897,278.277,675.897,270.65 M651.158,293.121h31.749v82.258c0,23.296,9.894,34.84,29.481,34.84
		c19.585,0,29.273-11.544,29.273-34.84v-82.258h31.748v85.558c0,19.378-5.771,34.22-17.316,44.737
		c-11.546,10.512-26.182,15.666-43.705,15.666c-17.729,0-32.367-5.154-43.913-15.461c-11.544-10.514-17.317-25.358-17.317-44.942
		V293.121z"/>
	<path fill="#04294B" d="M361.88,400.474c0,69.202-41.934,128.618-101.78,154.205c-14.968,6.406-31.063,10.693-47.897,12.482
		V400.474H260.1v100.018c32.465-21.414,53.883-58.219,53.883-100.018c0-66.133-53.608-119.748-119.748-119.748
		c-66.132,0-119.746,53.615-119.746,119.748c0,41.809,21.425,78.609,53.889,100.027V400.474h47.897V567.17
		c-16.835-1.798-32.93-6.077-47.897-12.485C68.53,529.092,26.59,469.676,26.59,400.474c0-92.591,75.061-167.644,167.645-167.644
		C286.827,232.83,361.88,307.882,361.88,400.474"/>
</g>
</svg>
