<?xml version="1.0" encoding="utf-8"?>
<!-- Generator: Adobe Illustrator 16.0.0, SVG Export Plug-In . SVG Version: 6.00 Build 0)  -->
<!DOCTYPE svg PUBLIC "-//W3C//DTD SVG 1.0//EN" "http://www.w3.org/TR/2001/REC-SVG-20010904/DTD/svg10.dtd">
<svg version="1.0" id="Layer_1" xmlns="http://www.w3.org/2000/svg" xmlns:xlink="http://www.w3.org/1999/xlink" x="0px" y="0px"
	 width="800px" height="800px" viewBox="0 0 800 800" enable-background="new 0 0 800 800" xml:space="preserve">
<g>
	<path fill-rule="evenodd" clip-rule="evenodd" fill="#2C3655" d="M18.738,336.995c0.892-0.101,0.77-0.907,0.825-1.412
		c0.2-1.82,0.43-3.663,0.354-5.483c-0.158-3.768,0.234-7.492,0.549-11.376c1.593,0.35,2.774,1.406,4.057,2.2
		c7.751,4.806,15.887,8.729,24.583,11.571c6.485,2.119,13.016,3.919,19.732,5.098c1.817,0.318,3.642,0.351,5.457,0.535
		c6.012,0.609,12.055,0.414,18.088,0.422c7.011,0.007,14.029,0.177,21.033-0.049c7.859-0.255,15.723-0.435,23.577-0.739
		c3.139-0.121,6.285-0.129,9.421-0.288c7.767-0.396,15.537-0.609,23.31-0.803c3.224-0.081,6.46-0.089,9.685-0.274
		c7.764-0.445,15.533-0.599,23.305-0.791c5.494-0.135,10.984-0.496,16.479-0.713c3.552-0.141,7.083-0.793,10.633-1.137
		c4.525-0.437,8.905-1.561,13.282-2.708c5.515-1.447,10.79-3.482,15.74-6.358c2.326-1.352,4.769-2.505,7.115-3.727
		c0.74,0.584,0.486,1.236,0.488,1.794c0.019,8.589-0.03,17.178,0.052,25.768c0.014,1.557-0.537,2.303-1.885,2.98
		c-4.05,2.037-8.019,4.237-11.747,6.229c-0.41,0.548-0.248,0.823-0.082,0.977c2.797,2.587,3.96,6.109,5.464,9.44
		c1.183,2.62,2.615,5.109,3.348,7.943c1.782,6.894,3.5,13.837,4.001,20.917c0.235,3.317,0.269,6.749,0.241,10.131
		c-0.033,4.021-0.618,7.949-1.204,11.89c-0.205,1.372-0.678,2.705-1.042,4.053c-2.047,7.567-5.234,14.597-9.881,20.938
		c-0.154,0.211-0.249,0.475-0.429,0.658c-3.358,3.422-6.029,7.508-9.783,10.522c-2.573,2.065-5.372,3.881-8.215,5.567
		c-5.372,3.188-11.152,5.503-17.287,6.647c-4.38,0.815-8.888,0.889-13.328,0.477c-1.812-0.171-3.694-0.417-5.453-0.403
		c-4.154,0.032-7.884-1.459-11.713-2.559c-8.103-2.321-15.772-5.681-22.753-10.468c-1.785-1.224-3.449-2.625-5.357-4.089
		c-1.884,3.176-4.475,5.609-5.863,9.012c-0.901,2.205-2.588,4.147-4.151,6.015c-1.848,2.204-3.64,4.426-5.245,6.82
		c-2.4,3.586-6.152,5.556-9.52,7.813c-0.871-0.371-0.617-0.974-0.635-1.445c-0.183-4.791-0.665-9.555-1.496-14.273
		c-0.729-4.132-2.179-8.041-3.955-11.831c-0.148-0.317-0.311-0.635-0.515-0.917c-1.414-1.966-1.864-2.076-3.531-0.281
		c-2.619,2.815-5.54,5.313-8.217,8.07c-1.859,1.913-4.231,3.351-6.457,4.881c-8.005,5.517-16.719,9.523-26.275,11.349
		c-4.512,0.861-9.129,0.907-13.795,0.482c-5.582-0.509-10.781-2.063-15.843-4.235c-4.601-1.978-8.819-4.59-12.32-8.253
		c-0.718-0.751-1.478-1.456-2.336-2.086c-1.003-0.738-2.096-1.49-2.334-2.984c-0.091-0.581-0.826-1.089-1.323-1.575
		c-2.777-2.724-4.747-5.948-6.541-9.402c-2.76-5.313-4.565-10.932-6.129-16.647c-0.591-2.162-1.026-4.446-1.034-6.675
		c-0.01-3.467-0.857-6.875-0.181-10.42c0.548-2.88-0.175-5.948,0.428-8.887c0.701-3.411,0.438-6.938,1.355-10.321
		c0.681-2.513,1.107-5.103,1.897-7.577c1.806-5.649,3.356-11.376,5.53-16.916c1.147-2.924,2.412-5.785,3.7-8.639
		c0.516-1.146,0.373-1.736-0.651-2.62c-4.489-3.876-9.484-7.085-14.039-10.863c-0.373-0.31-0.779-0.346-1.191-0.455
		c0-0.701,0-1.402,0-2.104c0.223-0.246,0.635-0.489,0.642-0.742c0.058-1.976,0.049-3.952,0.035-5.929
		c-0.004-0.393-0.357-0.55-0.677-0.69C18.738,337.696,18.738,337.346,18.738,336.995z M191.729,364.66
		c-0.611-0.644-1.251-0.473-1.824-0.464c-10.76,0.185-21.512-0.363-32.266-0.336c-9.267,0.021-18.529-0.175-27.804,0.233
		c-7.065,0.311-14.138,0.606-21.21,0.762c-5.11,0.113-10.09,1.106-15.38,1.675c0.739,1.336,1.735,2.059,2.554,2.927
		c9.622,10.216,20.533,19.196,29.056,30.465c2.101,2.775,4.513,5.318,6.574,8.12c3.654,4.972,7.123,10.078,10.723,15.09
		c1.08,1.501,1.179,1.357,2.446-0.033c1.775-1.948,2.685-4.443,4.245-6.486c4.021-5.264,7.484-10.93,11.667-16.074
		c0.49-0.603,0.803-1.346,1.262-1.977c2.821-3.871,5.584-7.787,8.517-11.574c2.242-2.894,4.876-5.461,7.323-8.188
		c3.918-4.366,8.111-8.436,12.556-12.25C190.83,365.979,191.44,365.444,191.729,364.66z M214.883,380.71
		c2.206,1.744,3.297,3.946,4.625,5.99c3.356,5.159,4.64,10.962,4.4,16.902c-0.327,8.117-4.144,14.481-11.43,18.476
		c-5.07,2.776-10.394,3.338-15.951,1.67c-5-1.497-9.292-4.219-13.213-7.585c-1.269-1.091-1.699-1.166-2.452,0.117
		c-2.032,3.462-4.302,6.768-6.488,10.128c-0.344,0.53-0.586,0.95,0.051,1.562c0.81,0.771,1.424,1.713,2.41,2.35
		c1.682,1.088,3.247,2.357,4.916,3.469c3.199,2.128,6.521,4.01,10.198,5.236c3.238,1.083,6.557,1.634,9.93,2.103
		c7.756,1.079,14.59-1.006,20.977-5.322c3.684-2.491,6.679-5.511,9.17-9.195c2.882-4.27,4.821-8.904,5.919-13.856
		c1.397-6.302,1.546-12.744,0.565-19.103c-0.524-3.401-0.899-6.907-2.461-10.125c-0.73-1.505-1.888-2.817-2.368-4.353
		c-0.828-2.643-2.679-4.398-4.453-6.291c-0.733-0.778-1.397-0.845-2.285-0.243C223.047,375.277,219.122,377.878,214.883,380.71z
		 M104.458,416.425c-1.613,1.912-3.093,3.733-4.643,5.496c-3.523,3.999-7.798,6.924-12.697,9.028
		c-2.932,1.262-5.954,1.231-9.014,1.179c-4.334-0.074-7.719-2.131-10.145-5.512c-2.03-2.829-3.038-6.137-3.773-9.621
		c-1.356-6.416-0.934-12.563,1.238-18.699c1.517-4.285,3.142-8.516,5.236-12.551c0.452-0.873,0.294-1.441-0.464-2.015
		c-3.338-2.521-6.643-5.086-9.986-7.604c-1.415-1.065-1.466-1.022-2.289,0.477c-3.326,6.063-5.596,12.545-7.555,19.143
		c-0.695,2.338-0.723,4.813-1.272,7.199c-1.282,5.576-1.166,11.304-0.136,16.814c0.964,5.161,2.383,10.397,5.548,14.804
		c1.559,2.168,2.817,4.639,4.975,6.301c3.104,2.395,6.357,4.417,10.196,5.688c5.393,1.786,10.712,1.67,15.936,0.134
		c7.053-2.074,13.03-6.218,18.37-11.193c2.708-2.524,5.552-4.97,7.331-8.363c0.419-0.8,0.675-1.218,0.034-2.013
		c-1.532-1.9-3.015-3.853-4.36-5.889C106.314,418.208,105.805,417.114,104.458,416.425z"/>
	<path fill-rule="evenodd" clip-rule="evenodd" fill="#231F20" d="M781.262,421.662c-1.391-0.497-2.6,0.309-3.861,0.597
		c-3.275,0.752-3.266,0.803-4.121-2.331c-0.393-1.434-0.777-2.871-1.174-4.305c-1.563-5.625-4.158-7.592-10.225-7.589
		c0,4.684,0,9.381,0,14.116c-2.191,0.498-4.201,0.167-6.189,0.247c-0.701,0.028-0.885-0.406-0.871-1.012c0.01-0.437,0-0.875,0-1.312
		c-0.002-10.16-0.008-20.319-0.004-30.478c0.002-2.254,0.004-2.277,2.117-2.784c4.285-1.029,8.613-1.553,13.012-0.875
		c6.518,1.005,10.406,6.187,9.258,12.296c-0.42,2.228-1.535,4.059-3.148,5.629c-0.559,0.542-1.363,0.802-1.748,1.539
		c0.066,0.721,0.691,0.97,1.121,1.355c1.611,1.45,2.662,3.238,3.225,5.31c0.713,2.614,1.389,5.24,2.064,7.866
		c0.084,0.328,0.063,0.692,0.545,0.677C781.262,420.96,781.262,421.311,781.262,421.662z M761.844,396.77c0,0.609,0,1.219,0,1.828
		c-0.002,4.453-0.002,4.453,4.486,3.974c3.145-0.336,5.498-2.945,5.4-5.985c-0.102-3.146-2.475-5.591-5.643-5.751
		c-0.865-0.043-1.74,0.084-2.611,0.07c-1.168-0.018-1.758,0.376-1.656,1.683C761.926,393.975,761.842,395.374,761.844,396.77z"/>
	<path fill-rule="evenodd" clip-rule="evenodd" fill="#231F20" d="M306.946,364.546c0-2.574,0-4.849,0-7.122
		c0.002-8.764,0.003-17.528,0.003-26.292c0.001-0.701,0.005-1.402,0.022-2.104c0.011-0.511-0.087-1.116,0.634-1.236
		c0.527-0.088,1.059-0.039,1.414,0.456c0.357,0.499,0.698,1.006,1.046,1.514c4.401,6.431,8.804,12.862,13.212,19.289
		c0.389,0.567,0.676,1.227,1.335,1.594c0.846-0.257,1.097-1.083,1.526-1.703c4.369-6.346,8.683-12.729,13.086-19.051
		c0.631-0.908,1.069-2.665,2.617-2.023c1.061,0.439,0.497,1.9,0.501,2.892c0.035,10.429,0.024,20.858,0.02,31.288
		c-0.002,2.702,0.233,2.52-2.314,2.479c-1.477-0.025-3.333,0.626-4.329-0.303c-1-0.939-0.339-2.812-0.353-4.266
		c-0.047-4.453-0.017-8.905-0.017-13.577c-1.134,0.368-1.318,1.29-1.708,1.967c-2.445,4.25-4.841,8.529-7.277,12.787
		c-1.326,2.314-2.033,2.331-3.336,0.057c-2.613-4.56-5.188-9.14-7.784-13.707c-0.203-0.357-0.444-0.694-0.683-1.065
		c-0.902,0.378-0.601,1.076-0.602,1.601c-0.024,4.908-0.051,9.816,0.007,14.724c0.018,1.291-0.235,1.938-1.706,1.831
		C310.614,364.452,308.95,364.546,306.946,364.546z"/>
	<path fill-rule="evenodd" clip-rule="evenodd" fill="#231F20" d="M380.115,346.473c0,1.362,0,2.725,0,4.086
		c0,4.116-0.04,8.236,0.025,12.351c0.019,1.251-0.353,1.761-1.634,1.649c-1.727-0.147-3.479,0.194-5.335-0.243
		c0-1.091,0-2.136,0-3.181c0.001-10.161,0.001-20.321,0.003-30.483c0-0.613-0.037-1.229,0.012-1.839
		c0.081-1.01,1.041-1.448,1.788-0.753c0.565,0.526,0.96,1.241,1.405,1.891c4.498,6.572,8.989,13.15,13.488,19.725
		c0.243,0.356,0.524,0.688,0.777,1.016c0.896-0.143,1.085-0.9,1.456-1.438c4.375-6.338,8.729-12.69,13.089-19.039
		c0.298-0.434,0.604-0.858,0.888-1.303c0.434-0.689,0.899-1.38,1.852-1.115c1.004,0.276,0.569,1.172,0.57,1.777
		c0.033,11.036,0.033,22.074,0.023,33.111c-0.002,1.809-0.045,1.891-1.903,1.831c-1.634-0.053-3.788,0.777-4.753-0.412
		c-0.787-0.97-0.271-3.019-0.279-4.591c-0.02-3.767,0.002-7.532-0.02-11.299c0-0.57,0.211-1.198-0.367-1.863
		c-0.744,0.527-1.018,1.356-1.418,2.063c-2.473,4.334-4.908,8.688-7.402,13.011c-1.141,1.976-1.924,1.955-3.081-0.06
		c-2.572-4.477-5.106-8.979-7.659-13.467c-0.298-0.522-0.617-1.03-0.929-1.547C380.512,346.392,380.313,346.432,380.115,346.473z"/>
	<path fill-rule="evenodd" clip-rule="evenodd" fill="#231F20" d="M354.292,459.339c-0.063,1.26-0.138,2.096-0.142,2.929
		c-0.011,5.521-0.041,11.04,0.022,16.56c0.014,1.336-0.34,1.936-1.755,1.813c-1.645-0.142-3.313,0.143-5.116-0.181
		c0-0.729,0-1.422,0-2.114c0-10.689,0-21.378,0-32.066c0-0.265-0.023-0.529,0.006-0.79c0.065-0.566-0.275-1.336,0.503-1.593
		c0.722-0.238,1.318,0.095,1.839,0.687c1.04,1.183,2.166,2.29,3.233,3.449c4.807,5.216,9.603,10.443,14.408,15.662
		c0.444,0.48,0.932,0.924,1.549,1.532c0.554-1.105,0.368-1.982,0.371-2.814c0.012-5.519-0.01-11.039,0.004-16.56
		c0.005-2.004,0.039-2.065,2.011-2.022c1.54,0.035,3.476-0.678,4.52,0.371c0.949,0.955,0.292,2.845,0.299,4.318
		c0.029,9.9,0.018,19.801,0.018,29.701c0,0.351,0.039,0.707-0.007,1.051c-0.101,0.741,0.394,1.736-0.483,2.156
		c-1.019,0.488-1.532-0.465-2.109-1.104c-5.679-6.313-11.363-12.625-17.056-18.927C355.846,460.775,355.208,460.226,354.292,459.339
		z"/>
	<path fill-rule="evenodd" clip-rule="evenodd" fill="#231F20" d="M665.574,349.41c0-6.023,0-11.438,0-16.854
		c0-1.139,0.033-2.277-0.01-3.414c-0.035-0.966,0.264-1.488,1.336-1.408c1.73,0.129,3.848-0.681,5.104,0.323
		c1.229,0.981,0.414,3.121,0.424,4.738c0.055,10.069,0.039,20.139,0.002,30.208c-0.004,0.764,0.57,1.866-0.646,2.24
		c-1.049,0.322-1.533-0.587-2.111-1.229c-5.508-6.107-11.023-12.213-16.539-18.315c-0.637-0.705-1.299-1.39-1.916-2.048
		c-1.104,0.393-0.719,1.216-0.721,1.828c-0.023,5.69-0.002,11.383-0.012,17.074c-0.002,1.958-0.029,1.964-2.016,1.991
		c-1.137,0.018-2.279-0.046-3.412,0.022c-1.189,0.071-1.447-0.479-1.441-1.564c0.029-11.208,0.014-22.416,0.027-33.624
		c0-0.573-0.244-1.333,0.557-1.567c0.725-0.21,1.338,0.104,1.859,0.674c2.48,2.711,4.988,5.399,7.479,8.104
		c3.5,3.796,6.99,7.602,10.492,11.395C664.369,348.354,664.768,348.67,665.574,349.41z"/>
	<path fill-rule="evenodd" clip-rule="evenodd" fill="#231F20" d="M585.711,349.45c0-6.701-0.002-12.746,0-18.792
		c0-0.612,0.031-1.228,0.008-1.84c-0.031-0.801,0.395-1.087,1.123-1.075c0.176,0.003,0.352-0.017,0.525-0.004
		c1.645,0.128,3.686-0.683,4.832,0.362c1.061,0.966,0.359,2.985,0.365,4.533c0.031,10.079,0.027,20.156-0.008,30.236
		c-0.004,0.787,0.535,1.894-0.533,2.328c-1.145,0.467-1.668-0.603-2.305-1.306c-5.688-6.308-11.381-12.612-17.082-18.911
		c-0.445-0.491-0.953-0.93-1.529-1.489c-0.725,0.948-0.449,1.846-0.451,2.666c-0.025,5.434-0.01,10.866-0.021,16.3
		c-0.004,2.035-0.025,2.046-1.939,2.075c-1.227,0.021-2.453-0.028-3.68,0.014c-0.924,0.031-1.24-0.39-1.207-1.261
		c0.039-0.963,0.008-1.928,0.008-2.892c-0.002-9.903-0.004-19.807-0.004-29.708c0-0.527,0-1.052,0-1.578
		c-0.004-0.527-0.053-1.126,0.58-1.312c0.508-0.149,1.066-0.061,1.48,0.322c0.385,0.355,0.707,0.776,1.061,1.163
		c5.576,6.055,11.152,12.111,16.736,18.161C584.182,347.998,584.744,348.504,585.711,349.45z"/>
	<path fill-rule="evenodd" clip-rule="evenodd" fill="#231F20" d="M584.311,401.396c0,3.116-0.002,5.905,0,8.696
		c0.002,3.591-0.025,7.182,0.027,10.773c0.016,1.091-0.275,1.633-1.469,1.559c-1.131-0.072-2.273,0-3.412-0.017
		c-1.941-0.028-1.973-0.036-1.975-2.058c-0.012-9.461-0.004-18.921-0.004-28.382c0-1.664,0-3.329,0.002-4.992
		c0-0.521-0.072-1.131,0.592-1.283c0.506-0.116,1.07-0.088,1.482,0.324c0.494,0.493,0.951,1.023,1.426,1.538
		c5.572,6.054,11.143,12.107,16.721,18.155c0.393,0.428,0.713,0.972,1.686,1.136c0-0.791,0-1.537,0-2.281
		c0-5.607-0.004-11.212,0.002-16.819c0.004-2.069,0.018-2.126,1.904-2.103c1.561,0.02,3.533-0.66,4.574,0.329
		c1.051,0.999,0.357,2.985,0.361,4.533c0.033,9.898,0.018,19.796,0.018,29.694c0,0.613,0.035,1.229-0.01,1.84
		c-0.082,1.085-0.848,1.48-1.742,0.851c-0.492-0.346-0.877-0.851-1.287-1.304c-5.508-6.115-11.01-12.235-16.527-18.342
		C586.121,402.624,585.652,401.865,584.311,401.396z"/>
	<path fill-rule="evenodd" clip-rule="evenodd" fill="#231F20" d="M336.547,394.092c-2.317-1.298-4.802-2.313-7.5-2.76
		c-6.72-1.11-12.135,1.791-14.404,7.752c-2.131,5.604-0.602,12.148,3.711,15.876c3.231,2.794,9.991,3.585,13.695,1.637
		c0.528-0.279,0.812-0.602,0.808-1.199c-0.008-2.453-0.019-4.906,0.003-7.36c0.011-1.019-0.61-1.085-1.38-1.071
		c-1.664,0.03-3.33-0.004-4.994,0.046c-0.92,0.027-1.277-0.376-1.199-1.253c0.008-0.085,0-0.175,0-0.263
		c0.038-4.227-0.394-3.372,3.202-3.43c3.241-0.051,6.483,0.032,9.726-0.034c1.221-0.027,1.709,0.303,1.688,1.613
		c-0.07,4.38-0.042,8.76-0.016,13.141c0.004,0.856-0.234,1.482-0.947,2.015c-8.269,6.189-21.784,6.382-29.262-3.284
		c-6.868-8.873-4.284-21.472,5.73-27.131c7.206-4.071,14.59-3.736,21.749,0.407c2.104,1.218,2.071,1.316,0.835,3.315
		C337.586,392.765,337.376,393.572,336.547,394.092z"/>
	<path fill-rule="evenodd" clip-rule="evenodd" fill="#231F20" d="M497.744,463.741c3.357,2.322,4.617,5.612,5.393,9.191
		c0.314,1.45,0.775,2.871,1.168,4.306c0.619,2.263,0.617,2.263-1.521,2.824c-1.521,0.398-3.043,0.802-4.639,1.224
		c-0.883-1.021-0.83-2.414-1.262-3.621c-0.471-1.314-0.746-2.697-1.119-4.048c-1.508-5.419-4.217-7.403-10.016-7.248
		c-0.406,1.786-0.158,3.618-0.189,5.432c-0.045,2.453-0.061,4.91,0.008,7.362c0.033,1.148-0.375,1.574-1.502,1.484
		c-1.734-0.141-3.877,0.685-5.105-0.33c-1.172-0.973-0.383-3.129-0.391-4.755c-0.047-9.202-0.025-18.405-0.018-27.607
		c0-2.385-0.004-2.467,2.279-2.97c4.379-0.96,8.777-1.59,13.281-0.756c8.018,1.489,11.689,9.703,7.174,16.185
		c-0.447,0.641-1.016,1.206-1.582,1.748C499.199,462.643,498.617,463.045,497.744,463.741z M485.67,454.819c0,0.612,0,1.222,0,1.834
		c0,4.58,0,4.58,4.605,4.076c2.943-0.322,5.145-2.695,5.205-5.612c0.063-3.023-2.158-5.675-5.105-6.014
		c-0.861-0.099-1.746-0.039-2.615,0c-2.041,0.097-2.051,0.108-2.086,2.047C485.652,452.374,485.67,453.596,485.67,454.819z"/>
	<path fill-rule="evenodd" clip-rule="evenodd" fill="#231F20" d="M467.211,350.259c0,4.31-0.059,8.418,0.033,12.522
		c0.031,1.404-0.428,1.894-1.779,1.77c-1.641-0.149-3.709,0.667-4.826-0.33c-1.162-1.035-0.385-3.14-0.395-4.766
		c-0.049-9.195-0.027-18.392-0.02-27.586c0-2.4,0.01-2.406,2.246-2.951c4.287-1.046,8.623-1.583,13.008-0.813
		c4.025,0.707,7.234,2.629,8.723,6.675c1.553,4.22,0.355,8.422-3.223,11.608c-1.396,1.241-1.424,1.273-0.113,2.51
		c1.707,1.61,2.779,3.542,3.346,5.815c0.615,2.462,1.318,4.9,2.029,7.335c0.279,0.958,0.039,1.482-0.955,1.712
		c-1.533,0.354-3.057,0.75-4.58,1.156c-0.84,0.224-1.279-0.02-1.502-0.903c-0.559-2.204-1.191-4.39-1.809-6.579
		C475.877,352.042,473.09,350.023,467.211,350.259z M469.916,344.727c0-0.021,0-0.039,0-0.06c0.697,0,1.41,0.082,2.096-0.014
		c3.041-0.422,5.279-3.06,5.145-5.995c-0.146-3.171-2.553-5.58-5.754-5.701c-0.961-0.036-1.924,0.079-2.887,0.117
		c-0.834,0.032-1.236,0.383-1.227,1.291c0.037,3.067,0.033,6.134,0.004,9.198c-0.01,0.956,0.471,1.215,1.309,1.166
		C469.037,344.705,469.477,344.727,469.916,344.727z"/>
	<path fill-rule="evenodd" clip-rule="evenodd" fill="#231F20" d="M335.333,461.473c0,4.203-0.157,8.415,0.065,12.606
		c0.111,2.104-0.694,3.075-2.421,3.964c-4.037,2.076-8.261,3.454-12.791,3.46c-6.067,0.007-13.488-4.8-13.544-12.935
		c-0.049-7.095,0.014-14.188-0.037-21.281c-0.008-1.245,0.341-1.76,1.629-1.662c1.219,0.091,2.456,0.095,3.676,0.001
		c1.41-0.109,1.751,0.472,1.735,1.818c-0.065,6.04-0.027,12.084-0.025,18.127c0.001,1.313-0.054,2.63,0.032,3.939
		c0.246,3.761,3.053,6.493,6.82,6.692c1.053,0.056,2.092-0.077,3.131-0.273c4.453-0.842,4.455-0.829,4.455-5.374
		c0-7.618-0.008-15.238,0.003-22.855c0.002-1.983,0.03-2.026,1.989-2.02c1.652,0.004,3.713-0.689,4.85,0.279
		c1.188,1.009,0.253,3.122,0.424,4.742c0.046,0.433,0.008,0.874,0.008,1.313C335.333,455.166,335.333,458.32,335.333,461.473z"/>
	<path fill-rule="evenodd" clip-rule="evenodd" fill="#231F20" d="M379.539,403.216c0,4.558-0.027,9.113,0.019,13.669
		c0.014,1.164-0.315,1.759-1.424,2.396c-3.719,2.142-7.668,3.323-11.908,3.813c-7.518,0.865-15.621-4.649-15.376-13.645
		c0.181-6.655,0.026-13.318,0.038-19.979c0.003-1.991,0.032-2.031,1.988-2.019c1.565,0.01,3.524-0.639,4.586,0.274
		c1.111,0.955,0.394,2.965,0.405,4.509c0.043,5.956,0.205,11.924-0.063,17.869c-0.194,4.357,3.313,8.449,8.348,7.848
		c0.608-0.072,1.22-0.131,1.816-0.259c4.204-0.896,4.344-1.073,4.344-5.252c0-7.621-0.008-15.244,0.004-22.867
		c0.003-2.11,0.034-2.187,2.161-2.115c1.63,0.056,3.696-0.763,4.769,0.406c0.937,1.022,0.248,3.013,0.283,4.577
		c0.042,1.837,0.011,3.678,0.011,5.518C379.539,399.713,379.539,401.465,379.539,403.216z"/>
	<path fill-rule="evenodd" clip-rule="evenodd" fill="#231F20" d="M452,362.539c-2.156,0.835-4.023,1.555-5.887,2.282
		c-0.838,0.326-1.229,0.024-1.535-0.82c-0.781-2.133-1.691-4.216-2.523-6.329c-0.418-1.065-0.834-1.725-2.275-1.295
		c-3.42,1.019-6.932,0.969-10.363,0.024c-1.375-0.378-1.881,0.049-2.31,1.246c-0.738,2.056-1.638,4.05-2.411,6.093
		c-0.367,0.968-0.811,1.488-1.921,0.98c-1.741-0.794-3.643-1.197-5.306-2.185c0.201-1.86,1.289-3.37,2.043-4.998
		c4.346-9.353,8.75-18.68,13.162-28.001c0.285-0.598,0.338-1.38,1.101-1.702c1.016-0.432,1.933,0.033,2.592,1.428
		c2.722,5.771,5.425,11.553,8.136,17.328C446.953,351.81,449.406,357.024,452,362.539z M434.584,339.759
		c-1.492,3.633-2.765,6.73-4.036,9.829c-0.271,0.656-0.23,1.207,0.581,1.393c2.326,0.534,4.662,0.493,6.99,0.019
		c0.627-0.128,0.832-0.535,0.578-1.156C437.39,346.647,436.09,343.45,434.584,339.759z"/>
	<path fill-rule="evenodd" clip-rule="evenodd" fill="#231F20" d="M600.594,362.55c3.941-8.406,7.725-16.481,11.514-24.553
		c1.414-3.008,2.855-6.002,4.244-9.021c0.359-0.784,0.766-1.283,1.734-1.267c0.863,0.015,1.24,0.469,1.557,1.144
		c5.229,11.163,10.461,22.323,15.785,33.678c-2.063,0.8-3.998,1.556-5.939,2.299c-0.691,0.264-1.092,0.082-1.379-0.683
		c-0.822-2.212-1.789-4.37-2.617-6.581c-0.445-1.188-0.951-1.589-2.332-1.175c-3.426,1.03-6.938,0.913-10.375,0.003
		c-1.195-0.317-1.725-0.11-2.141,1.042c-0.768,2.139-1.707,4.215-2.508,6.343c-0.375,1-0.854,1.396-1.941,0.935
		C604.434,363.971,602.629,363.331,600.594,362.55z M613.668,350.409c2.746,1.28,6.053,1.285,8.707,0.011
		c-1.393-3.389-2.789-6.783-4.373-10.637C616.412,343.681,615.039,347.048,613.668,350.409z"/>
	<path fill-rule="evenodd" clip-rule="evenodd" fill="#231F20" d="M614.543,420.418c-0.057-0.876,0.396-1.456,0.688-2.073
		c4.791-10.224,9.604-20.438,14.41-30.655c0.037-0.08,0.07-0.161,0.113-0.238c0.439-0.796,0.52-1.836,1.867-1.862
		c1.322-0.026,1.545,0.903,1.947,1.753c1.533,3.245,3.066,6.491,4.592,9.739c3.385,7.211,6.775,14.419,10.145,21.64
		c0.795,1.706,0.783,1.79-0.953,2.393c-1.648,0.571-3.428,2.071-4.885,1.522c-1.475-0.555-1.539-2.922-2.24-4.486
		c-0.572-1.273-0.813-2.92-1.768-3.739c-1.055-0.905-2.596,0.288-3.951,0.39c-2.723,0.206-5.443,0.254-8.08-0.541
		c-1.205-0.363-1.74-0.027-2.145,1.094c-0.775,2.138-1.664,4.232-2.498,6.348c-0.318,0.81-0.715,1.396-1.74,0.945
		C618.215,421.843,616.238,421.393,614.543,420.418z M631.688,397.609c-1.494,3.658-2.768,6.79-4.057,9.915
		c-0.301,0.729-0.08,1.188,0.668,1.345c2.57,0.542,5.111,0.503,7.854-0.252C634.666,404.951,633.303,401.589,631.688,397.609z"/>
	<path fill-rule="evenodd" clip-rule="evenodd" fill="#231F20" d="M711.738,420.415c3.867-8.244,7.619-16.244,11.375-24.243
		c1.416-3.012,2.861-6.011,4.26-9.029c0.377-0.814,0.646-1.552,1.811-1.543c1.182,0.008,1.424,0.82,1.791,1.603
		c4.137,8.792,8.271,17.584,12.402,26.379c1.041,2.212,2.059,4.434,3.174,6.834c-1.984,0.77-3.854,1.476-5.709,2.219
		c-0.988,0.397-1.385-0.023-1.723-0.934c-0.789-2.133-1.717-4.218-2.529-6.342c-0.408-1.071-0.932-1.456-2.16-1.112
		c-3.529,0.989-7.109,0.932-10.645-0.018c-1.051-0.283-1.58-0.069-1.965,0.979c-0.818,2.217-1.779,4.379-2.627,6.583
		c-0.355,0.923-0.84,1.213-1.795,0.817C715.627,421.875,713.822,421.218,711.738,420.415z M729.451,398.321
		c-0.264,0.03-0.521,0-0.551,0.065c-1.289,3.062-2.559,6.134-3.828,9.202c-0.318,0.77,0.047,1.153,0.77,1.305
		c2.082,0.427,4.166,0.416,6.268,0.109c1.162-0.17,1.488-0.6,1-1.742C731.844,404.29,730.656,401.284,729.451,398.321z"/>
	<path fill-rule="evenodd" clip-rule="evenodd" fill="#231F20" d="M569.201,420.292c-1.881,1.089-3.855,1.553-5.691,2.339
		c-0.975,0.414-1.393-0.029-1.73-0.931c-0.791-2.133-1.721-4.214-2.512-6.346c-0.412-1.107-0.947-1.445-2.158-1.107
		c-3.535,0.993-7.113,0.911-10.65-0.012c-1.068-0.28-1.596-0.038-1.977,0.987c-0.824,2.214-1.768,4.387-2.607,6.595
		c-0.359,0.938-0.865,1.159-1.797,0.778c-1.771-0.727-3.576-1.376-5.648-2.161c0.742-1.603,1.422-3.079,2.111-4.548
		c4.465-9.508,8.924-19.016,13.41-28.511c0.311-0.659,0.346-1.581,1.377-1.741c1.275-0.202,1.82,0.427,2.332,1.533
		c3.072,6.679,6.234,13.318,9.361,19.973C565.068,411.488,567.107,415.838,569.201,420.292z M551.848,397.639
		c-1.492,3.62-2.768,6.717-4.049,9.807c-0.346,0.84-0.082,1.315,0.809,1.48c2.252,0.415,4.5,0.434,6.738-0.057
		c0.613-0.133,0.871-0.5,0.609-1.141C554.648,404.533,553.35,401.335,551.848,397.639z"/>
	<path fill-rule="evenodd" clip-rule="evenodd" fill="#231F20" d="M407.006,391.2c-4.451,0-8.721,0.011-12.992-0.003
		c-3.338-0.013-2.904,0.336-2.94-2.939c-0.006-0.438,0.033-0.88-0.008-1.313c-0.102-1.072,0.457-1.395,1.416-1.329
		c0.349,0.024,0.699,0.002,1.052,0.002c7.535-0.002,15.072-0.01,22.609,0.011c0.664,0.002,1.398-0.249,2.111,0.391
		c-0.123,0.932-0.77,1.666-1.24,2.463c-5.141,8.659-10.294,17.309-15.443,25.961c-0.223,0.375-0.463,0.744-0.665,1.131
		c-0.718,1.395-0.617,1.602,1.035,1.612c4.47,0.028,8.94-0.001,13.41,0.008c2.31,0.005,2.337,0.02,2.327,2.248
		c-0.015,3.331,0.395,2.96-2.914,2.967c-7.535,0.011-15.073,0.001-22.611,0c-0.613,0-1.227-0.007-1.84-0.003
		c-0.878,0.006-1.083-0.536-0.838-1.214c0.235-0.646,0.631-1.242,0.992-1.837c5.159-8.547,10.327-17.09,15.485-25.638
		C406.35,393.055,406.908,392.461,407.006,391.2z"/>
	<path fill-rule="evenodd" clip-rule="evenodd" fill="#231F20" d="M434.447,399.599c4.121,0,7.879,0.061,11.637-0.029
		c1.42-0.034,1.785,0.477,1.738,1.812c-0.141,4.183,0.518,3.469-3.416,3.524c-2.805,0.041-5.609,0.044-8.414-0.008
		c-1.112-0.021-1.573,0.354-1.557,1.502c0.047,3.067,0.053,6.137,0,9.203c-0.018,1.124,0.371,1.538,1.512,1.522
		c3.593-0.049,7.188-0.011,10.779-0.02c2.904-0.004,2.605-0.084,2.611,2.504c0,0.262,0.006,0.524,0,0.788
		c-0.037,1.968-0.039,2.001-2.037,2.008c-5.959,0.018-11.92,0.02-17.881,0.003c-1.936-0.007-1.963-0.041-1.964-2.07
		c-0.011-10.867-0.008-21.734,0-32.603c0.001-2.062,0.021-2.096,1.915-2.101c5.785-0.02,11.568,0.034,17.352-0.039
		c1.422-0.019,1.799,0.45,1.754,1.814c-0.154,4.625,0.621,3.696-3.67,3.777c-2.98,0.054-5.96,0.04-8.939-0.006
		c-1-0.017-1.441,0.316-1.429,1.338C434.468,394.789,434.447,397.061,434.447,399.599z"/>
	<path fill-rule="evenodd" clip-rule="evenodd" fill="#231F20" d="M594.699,462.421c0-5.607,0.031-11.215-0.023-16.82
		c-0.014-1.315,0.309-1.843,1.74-1.825c5.867,0.075,11.738,0.058,17.607,0.01c1.18-0.01,1.684,0.229,1.723,1.566
		c0.121,4.158,0.184,4.156-4.094,4.156c-2.803,0-5.607,0.037-8.41-0.018c-1.09-0.021-1.588,0.277-1.541,1.457
		c0.072,1.837,0.07,3.681-0.004,5.518c-0.047,1.21,0.514,1.452,1.58,1.438c3.414-0.046,6.832,0.01,10.248-0.031
		c1.068-0.014,1.523,0.269,1.572,1.451c0.158,3.869,0.211,3.869-3.643,3.869c-2.629,0.003-5.258-0.017-7.885,0.007
		c-1.799,0.016-1.826,0.042-1.844,1.922c-0.021,2.715-0.02,5.431,0,8.146c0.016,2.021,0.035,2.047,1.973,2.056
		c3.59,0.02,7.184-0.008,10.775,0.011c2.1,0.01,2.135,0.033,2.119,2.186c-0.021,3.587,0.449,3.087-3.01,3.106
		c-5.342,0.028-10.686,0.028-16.029,0.012c-3.416-0.011-2.82,0.343-2.844-2.975C594.67,472.582,594.699,467.5,594.699,462.421z"/>
	<path fill-rule="evenodd" clip-rule="evenodd" fill="#231F20" d="M452.793,449.502c0,2.471,0.061,4.73-0.023,6.983
		c-0.047,1.23,0.498,1.435,1.553,1.419c3.24-0.048,6.482-0.03,9.725-0.012c2.037,0.012,2.08,0.035,2.072,1.954
		c-0.016,3.973,0.412,3.286-3.334,3.332c-2.803,0.034-5.607,0.064-8.408-0.019c-1.293-0.038-1.648,0.438-1.617,1.669
		c0.076,2.889,0.012,5.782,0.041,8.673c0.018,1.794,0.049,1.82,1.934,1.831c3.68,0.02,7.359-0.011,11.039,0.014
		c1.859,0.013,1.912,0.045,1.9,1.881c-0.023,4.023,0.457,3.36-3.27,3.388c-5.607,0.042-11.213-0.018-16.82,0.03
		c-1.273,0.012-1.846-0.234-1.838-1.713c0.061-11.126,0.055-22.251,0.008-33.378c-0.008-1.382,0.426-1.781,1.789-1.768
		c5.869,0.067,11.74,0.054,17.607,0.004c1.217-0.01,1.662,0.306,1.697,1.606c0.105,4.106,0.164,4.104-3.916,4.104
		C459.619,449.502,456.305,449.502,452.793,449.502z"/>
	<path fill-rule="evenodd" clip-rule="evenodd" fill="#231F20" d="M420.326,468.212c1.145-1.659,1.705-3.606,2.473-5.443
		c2.426-5.815,4.783-11.658,7.18-17.49c0.688-1.677,0.738-1.756,2.43-1.027c1.65,0.71,4.166,0.647,4.74,2.272
		c0.502,1.411-1.139,3.149-1.867,4.724c-4.303,9.298-8.633,18.582-12.953,27.871c-0.221,0.476-0.413,0.97-0.674,1.423
		c-0.813,1.418-2.195,1.429-2.93-0.056c-1.396-2.825-2.695-5.698-4.027-8.557c-3.66-7.858-7.316-15.719-10.971-23.581
		c-0.994-2.139-0.988-2.142,1.094-2.942c0.898-0.347,1.798-0.689,2.7-1.029c2.156-0.809,2.171-0.813,3.108,1.458
		c1.873,4.528,3.732,9.063,5.594,13.597c0.965,2.351,1.9,4.712,2.902,7.04C419.393,467.087,419.5,467.855,420.326,468.212z"/>
	<path fill-rule="evenodd" clip-rule="evenodd" fill="#231F20" d="M510.889,360.406c0.035-0.078,0.059-0.168,0.111-0.23
		c0.846-1,1.516-2.342,2.592-2.906c1.271-0.663,2.219,0.94,3.385,1.396c2.35,0.919,4.742,1.216,7.207,0.901
		c1.758-0.222,3.186-1.063,3.693-2.886c0.508-1.814-0.271-3.28-1.639-4.392c-1.01-0.821-2.143-1.511-3.275-2.159
		c-2.43-1.388-4.949-2.626-7.334-4.078c-4.049-2.463-5.801-6.683-4.736-10.983c0.58-2.34,2.025-4.029,3.977-5.336
		c4.568-3.053,12.385-2.544,16.473,1.13c1.563,1.405,1.641,1.385,0.178,2.823c-0.615,0.606-1.182,1.262-1.881,2.012
		c-1.834-1.548-3.846-2.499-6.174-2.728c-2.771-0.271-4.904,0.618-5.604,2.404c-0.727,1.852,0.168,3.818,2.738,5.332
		c2.859,1.683,5.859,3.128,8.762,4.745c2.711,1.509,4.65,3.684,5.363,6.784c1.039,4.535-0.672,8.602-4.615,11.051
		C524.127,366.999,514.648,365.159,510.889,360.406z"/>
	<path fill-rule="evenodd" clip-rule="evenodd" fill="#231F20" d="M535.227,448.452c-1.041,1.159-1.965,2.19-2.953,3.292
		c-1.631-0.965-3.08-2.1-4.936-2.452c-1.486-0.279-2.947-0.435-4.402,0.021c-2.898,0.902-3.66,3.687-1.66,5.963
		c0.939,1.074,2.127,1.805,3.367,2.462c2.553,1.351,5.158,2.604,7.645,4.063c4.047,2.375,5.836,6.401,5.063,10.908
		c-0.404,2.354-1.564,4.258-3.412,5.723c-2.555,2.023-5.518,3.101-8.744,3.069c-4.525-0.043-8.498-1.645-11.77-4.726
		c0.203-0.914,0.813-1.327,1.242-1.866c1.545-1.944,1.555-1.944,3.646-0.787c2.277,1.26,4.711,1.848,7.313,1.673
		c0.604-0.039,1.221-0.116,1.801-0.291c3.33-1.01,4.188-4.236,1.756-6.735c-1.168-1.199-2.641-2.009-4.104-2.806
		c-2.381-1.297-4.811-2.509-7.123-3.919c-3.984-2.43-5.717-7.046-4.414-11.338c0.67-2.21,2.111-3.824,4.029-4.986
		C522.697,442.609,531.223,443.295,535.227,448.452z"/>
	<path fill-rule="evenodd" clip-rule="evenodd" fill="#231F20" d="M503.875,418.388c1.059-1.275,1.998-2.404,2.99-3.594
		c0.957,0.131,1.574,0.814,2.309,1.208c2.48,1.33,5.104,1.768,7.869,1.468c1.859-0.2,3.418-0.936,3.994-2.864
		c0.576-1.938-0.355-3.42-1.801-4.575c-0.949-0.763-2.002-1.409-3.061-2.012c-2.506-1.428-5.098-2.714-7.557-4.215
		c-3.842-2.342-5.582-6.627-4.566-10.813c0.662-2.744,2.357-4.762,4.838-5.871c5.336-2.384,10.551-2.122,15.375,1.413
		c1.824,1.337,1.789,1.486,0.299,3.175c-0.176,0.198-0.367,0.383-0.518,0.597c-0.715,1-1.406,1.304-2.516,0.36
		c-1.361-1.157-3.078-1.637-4.848-1.803c-0.775-0.071-1.58-0.075-2.35,0.04c-1.551,0.236-2.83,0.943-3.355,2.542
		c-0.531,1.628,0.164,2.907,1.307,3.996c1.021,0.973,2.24,1.653,3.486,2.309c2.627,1.385,5.332,2.663,7.82,4.269
		c3.252,2.102,4.824,5.269,4.574,9.161c-0.258,4.025-2.416,6.819-5.996,8.586c-1.598,0.788-3.314,1.173-5.053,1.3
		C512.084,423.437,507.691,421.932,503.875,418.388z"/>
	<path fill-rule="evenodd" clip-rule="evenodd" fill="#231F20" d="M648.049,448.354c-0.123,0.696-0.705,1.022-1.096,1.467
		c-1.611,1.839-1.627,1.825-3.855,0.566c-1.969-1.11-4.086-1.571-6.322-1.295c-1.666,0.208-3.018,0.975-3.57,2.673
		c-0.539,1.654,0.305,2.88,1.43,3.95c0.828,0.79,1.777,1.402,2.797,1.928c2.488,1.284,4.992,2.546,7.426,3.929
		c4.836,2.749,6.834,7.913,4.998,12.752c-1.127,2.975-3.332,4.892-6.221,6.015c-6.039,2.346-12.225,1.031-17.227-3.582
		c-0.156-0.4,0.145-0.645,0.357-0.886c0.801-0.912,1.33-2.309,2.488-2.6c1.064-0.271,1.959,0.924,2.984,1.371
		c2.131,0.931,4.344,1.323,6.658,1.147c2.326-0.177,4.07-1.325,4.471-3.032c0.484-2.073-0.512-3.598-2.109-4.72
		c-1.426-1.001-2.959-1.855-4.479-2.722c-1.898-1.085-3.873-2.041-5.74-3.179c-3.805-2.318-5.623-6.402-4.795-10.531
		c0.758-3.767,3.986-6.594,8.279-7.418c4.152-0.799,8.004-0.229,11.52,2.192C646.83,446.923,647.604,447.483,648.049,448.354z"/>
	<path fill-rule="evenodd" clip-rule="evenodd" fill="#231F20" d="M661.973,422.419c0-8.719,0-17.114,0-25.509
		c0-1.398-0.053-2.801,0.008-4.196c0.053-1.104-0.305-1.589-1.477-1.531c-1.572,0.078-3.152-0.03-4.723,0.028
		c-1.057,0.038-1.287-0.429-1.338-1.398c-0.219-4.208-0.248-4.205,4.059-4.202c5.6,0.005,11.197-0.005,16.797,0.016
		c1.867,0.009,1.924,0.043,1.904,1.854c-0.051,4.556,0.611,3.574-3.695,3.736c-1.457,0.055-3.287-0.655-4.266,0.401
		c-0.861,0.93-0.264,2.689-0.27,4.079c-0.023,8.223-0.006,16.447-0.02,24.67c0,2.015-0.029,2.025-1.971,2.049
		C665.416,422.433,663.852,422.419,661.973,422.419z"/>
	<path fill-rule="evenodd" clip-rule="evenodd" fill="#231F20" d="M577.957,465.043c0,4.642-0.035,9.282,0.021,13.923
		c0.016,1.205-0.264,1.786-1.596,1.685c-1.305-0.102-2.625-0.073-3.936-0.007c-1.117,0.058-1.586-0.325-1.525-1.488
		c0.076-1.483,0.02-2.976,0.02-4.467c0-7.615,0.004-15.23,0-22.849c-0.002-2.498,0.309-2.356-2.434-2.345
		c-0.525,0.004-1.055,0.044-1.576-0.011c-1.104-0.112-2.705,0.567-3.203-0.384c-0.701-1.339-0.273-3.076-0.186-4.641
		c0.043-0.737,0.703-0.619,1.213-0.62c2.012-0.01,4.027-0.02,6.039-0.021c4.553-0.002,9.107,0.049,13.658-0.032
		c1.373-0.022,1.826,0.382,1.785,1.763c-0.146,4.827,0.576,3.812-3.789,3.959c-1.387,0.048-3.129-0.599-4.072,0.263
		c-1.064,0.977-0.373,2.798-0.396,4.242C577.914,457.688,577.957,461.366,577.957,465.043z"/>
	<path fill-rule="evenodd" clip-rule="evenodd" fill="#231F20" d="M686.082,403.917c0.002-5.435-0.01-10.867,0.008-16.299
		c0.006-1.954,0.037-1.962,2.043-1.995c1.141-0.019,2.283,0.05,3.418-0.019c1.119-0.07,1.541,0.317,1.506,1.482
		c-0.072,2.361-0.012,4.729-0.012,7.095c0,7.011-0.01,14.021,0.002,21.031c0.004,1.847,0.033,1.882,1.879,1.898
		c3.156,0.027,6.311-0.01,9.465,0.011c1.93,0.011,1.99,0.038,1.979,1.812c-0.027,4.168,0.467,3.427-3.467,3.462
		c-4.904,0.048-9.813,0.023-14.723,0.009c-2.074-0.009-2.092-0.031-2.094-2.189C686.074,414.781,686.082,409.349,686.082,403.917z"
		/>
	<path fill-rule="evenodd" clip-rule="evenodd" fill="#231F20" d="M466.811,401.55c0,4.555-0.016,9.107,0.006,13.662
		c0.008,1.845,0.045,1.88,1.885,1.894c3.154,0.03,6.305-0.002,9.457,0.016c1.916,0.009,1.977,0.031,1.959,1.806
		c-0.043,4.262,0.512,3.436-3.41,3.478c-4.99,0.052-9.98,0.024-14.971,0c-1.813-0.01-1.848-0.055-1.848-1.913
		c-0.012-10.944-0.01-21.891,0-32.837c0.004-1.986,0.035-1.995,2.008-2.03c1.051-0.017,2.107,0.069,3.152-0.02
		c1.352-0.115,1.816,0.355,1.791,1.762C466.758,392.093,466.811,396.823,466.811,401.55z"/>
	<path fill-rule="evenodd" clip-rule="evenodd" fill="#231F20" d="M394.549,462.688c0.003,5.339,0.012,10.68-0.001,16.02
		c-0.007,1.882-0.032,1.941-1.808,1.917c-1.649-0.024-3.741,0.699-4.833-0.304c-1.108-1.018-0.359-3.136-0.366-4.762
		c-0.041-9.719-0.026-19.436-0.019-29.154c0.001-2.166,0.022-2.208,2.075-2.18c1.561,0.021,3.537-0.656,4.575,0.297
		c1.058,0.967,0.341,2.967,0.357,4.508C394.58,453.582,394.548,458.134,394.549,462.688z"/>
	<path fill-rule="evenodd" clip-rule="evenodd" fill="#231F20" d="M354.449,346.21c0-5.426-0.014-10.851,0.006-16.276
		c0.008-1.825,0.046-1.836,1.909-1.867c1.135-0.02,2.282,0.082,3.41-0.021c1.459-0.135,1.727,0.546,1.721,1.836
		c-0.038,10.938-0.018,21.876-0.029,32.815c-0.003,1.813-0.038,1.824-1.897,1.859c-1.137,0.022-2.28-0.072-3.411,0.022
		c-1.425,0.12-1.759-0.499-1.742-1.828c0.062-5.514,0.025-11.027,0.025-16.54C354.444,346.21,354.445,346.21,354.449,346.21z"/>
	<path fill-rule="evenodd" clip-rule="evenodd" fill="#231F20" d="M544.797,364.32c-0.029-0.522-0.08-0.958-0.08-1.389
		c-0.004-10.931-0.008-21.86,0-32.791c0-2.023,0.023-2.053,1.943-2.058c1.568-0.003,3.602-0.512,4.588,0.269
		c1.213,0.96,0.416,3.11,0.424,4.735c0.051,9.443,0.041,18.887,0.018,28.33c-0.01,3.632,0.496,3.088-3.248,3.117
		C547.316,364.543,546.178,364.698,544.797,364.32z"/>
	<path fill-rule="evenodd" clip-rule="evenodd" fill="#231F20" d="M554.598,462.363c0,5.43,0.012,10.858-0.004,16.286
		c-0.008,1.938-0.033,1.947-2.039,1.973c-1.313,0.015-2.629-0.007-3.939,0.003c-0.643,0.007-0.975-0.259-0.951-0.927
		c0.014-0.439-0.016-0.878-0.016-1.314c0-10.682-0.004-21.363,0.004-32.044c0.002-2.078,0.027-2.14,2.146-2.084
		c1.539,0.041,3.479-0.706,4.51,0.397c0.91,0.979,0.264,2.845,0.277,4.316C554.623,453.435,554.598,457.899,554.598,462.363z"/>
	<path fill-rule="evenodd" clip-rule="evenodd" fill="#231F20" d="M660.234,462.283c0-5.424,0.033-10.85-0.027-16.274
		c-0.014-1.311,0.281-1.951,1.729-1.791c1.633,0.18,3.713-0.659,4.814,0.332c1.143,1.026,0.381,3.137,0.387,4.766
		c0.045,9.713,0.027,19.425,0.02,29.138c-0.002,2.144-0.023,2.146-2.1,2.172c-0.963,0.012-1.926,0.012-2.889-0.002
		c-1.904-0.032-1.926-0.039-1.93-2.064C660.225,473.133,660.234,467.71,660.234,462.283z"/>
	<path fill-rule="evenodd" clip-rule="evenodd" fill="#231F20" d="M555.006,438.271c0.037,2.001-1.76,3.862-3.787,3.915
		c-1.971,0.05-3.908-1.786-3.967-3.761c-0.057-1.935,1.836-3.887,3.805-3.926C553.041,434.46,554.965,436.301,555.006,438.271z"/>
	<path fill-rule="evenodd" clip-rule="evenodd" fill="#231F20" d="M552.096,322.127c0.07,2.055-1.645,3.875-3.715,3.94
		c-2.021,0.064-3.916-1.696-3.986-3.704c-0.07-1.957,1.762-3.894,3.748-3.963C550.154,318.33,552.025,320.093,552.096,322.127z"/>
	<path fill-rule="evenodd" clip-rule="evenodd" fill="#231F20" d="M361.782,322.257c-0.008,2.103-1.726,3.818-3.803,3.8
		c-2.027-0.018-3.852-1.833-3.844-3.827c0.006-1.976,1.871-3.807,3.871-3.806C360.071,318.424,361.79,320.168,361.782,322.257z"/>
	<path fill-rule="evenodd" clip-rule="evenodd" fill="#231F20" d="M394.878,438.443c-0.057,2.087-1.848,3.799-3.898,3.732
		c-2.004-0.067-3.822-1.959-3.769-3.926c0.054-1.983,1.97-3.784,3.964-3.729C393.247,434.577,394.939,436.368,394.878,438.443z"/>
	<path fill-rule="evenodd" clip-rule="evenodd" fill="#231F20" d="M667.592,438.349c0,1.993-1.869,3.845-3.877,3.841
		c-1.998-0.003-3.902-1.874-3.904-3.838c-0.004-1.918,1.957-3.852,3.91-3.854C665.727,434.495,667.588,436.348,667.592,438.349z"/>
	<path fill-rule="evenodd" clip-rule="evenodd" fill="#231F20" d="M327.31,441.556c-1.781,0.06-3.693-1.624-3.791-3.34
		c-0.106-1.858,1.733-3.699,3.688-3.692c1.883,0.004,3.614,1.645,3.643,3.449C330.876,439.717,329.121,441.496,327.31,441.556z"/>
	<path fill-rule="evenodd" clip-rule="evenodd" fill="#231F20" d="M315.115,434.509c1.881,0.004,3.79,1.934,3.7,3.741
		c-0.078,1.548-1.935,3.255-3.594,3.302c-1.921,0.054-3.875-1.8-3.79-3.595C311.517,436.15,313.273,434.507,315.115,434.509z"/>
	<path fill-rule="evenodd" clip-rule="evenodd" fill="#231F20" d="M371.493,383.289c-1.823,0.046-3.605-1.529-3.713-3.286
		c-0.119-1.905,1.585-3.668,3.586-3.706c1.845-0.038,3.631,1.541,3.745,3.307C375.226,381.408,373.431,383.238,371.493,383.289z"/>
	<path fill-rule="evenodd" clip-rule="evenodd" fill="#231F20" d="M359.446,383.295c-1.964,0.046-3.813-1.667-3.789-3.511
		c0.022-1.766,1.734-3.438,3.571-3.493c1.909-0.058,3.751,1.66,3.808,3.549C363.087,381.477,361.242,383.254,359.446,383.295z"/>
</g>
</svg>
