<?xml version="1.0" encoding="utf-8"?>
<!-- Generator: Adobe Illustrator 16.0.0, SVG Export Plug-In . SVG Version: 6.00 Build 0)  -->
<!DOCTYPE svg PUBLIC "-//W3C//DTD SVG 1.0//EN" "http://www.w3.org/TR/2001/REC-SVG-20010904/DTD/svg10.dtd">
<svg version="1.0" id="Layer_1" xmlns="http://www.w3.org/2000/svg" xmlns:xlink="http://www.w3.org/1999/xlink" x="0px" y="0px"
	 width="800px" height="800px" viewBox="0 0 800 800" enable-background="new 0 0 800 800" xml:space="preserve">
<g>
	<path fill="#333333" d="M296.82,383.449v-0.109c0-13.23,10.205-24.291,24.613-24.291c14.489,0,24.532,10.898,24.532,24.13v0.161
		c0,13.15-10.204,24.238-24.64,24.238C306.891,407.578,296.82,396.678,296.82,383.449 M337.289,383.449v-0.109
		c0-9.16-6.643-16.738-15.963-16.738c-9.319,0-15.855,7.472-15.855,16.578v0.161c0,9.108,6.697,16.738,15.963,16.738
		C330.753,400.079,337.289,392.606,337.289,383.449"/>
	<path fill="#333333" d="M352.501,399.945l4.98-5.864c4.447,3.883,8.946,6.081,14.81,6.081c5.116,0,8.357-2.359,8.357-5.92v-0.108
		c0-3.347-1.874-5.169-10.66-7.177c-9.962-2.41-15.612-5.383-15.612-14.061v-0.107c0-8.062,6.722-13.659,16.069-13.659
		c6.856,0,12.265,2.089,17.06,5.946l-4.445,6.24c-4.285-3.188-8.463-4.822-12.801-4.822c-4.823,0-7.608,2.464-7.608,5.544v0.161
		c0,3.616,2.143,5.196,11.141,7.338c9.909,2.465,15.134,5.973,15.134,13.767v0.159c0,8.784-6.965,14.062-16.848,14.062
		C364.955,407.525,358.151,404.98,352.501,399.945"/>
	<polygon fill="#333333" points="409.146,367.485 394.255,367.485 394.255,359.799 432.393,359.799 432.393,367.485 
		417.502,367.485 417.502,406.801 409.146,406.801 	"/>
	<path fill="#333333" d="M441.498,348.416h8.57v7.526h-8.57V348.416z M441.606,359.825h8.303v46.951h-8.303V359.825z"/>
	<polygon fill="#333333" points="462.441,359.825 471.227,359.825 485.528,382.028 499.831,359.825 508.615,359.825 
		508.615,406.775 500.367,406.775 500.367,373.11 485.528,395.26 485.26,395.26 470.584,373.271 470.584,406.775 462.441,406.775 	
		"/>
	<polygon fill="#333333" points="547.075,367.485 532.239,367.485 532.239,359.799 570.322,359.799 570.322,367.485 
		555.377,367.485 555.377,406.801 547.075,406.801 	"/>
	<polygon fill="#333333" points="579.052,359.825 613.871,359.825 613.871,367.218 587.304,367.218 587.304,379.405 
		610.872,379.405 610.872,386.823 587.304,386.823 587.304,399.437 614.191,399.437 614.191,406.775 579.052,406.775 	"/>
	<polygon fill="#333333" points="624.049,359.825 632.297,359.825 632.297,383.476 654.634,359.825 664.812,359.825 
		645.258,380.021 665.668,406.775 655.653,406.775 639.635,385.671 632.297,393.17 632.297,406.775 624.049,406.775 	"/>
	<polygon fill="#333333" points="672.738,359.825 680.397,359.825 705.574,392.287 705.574,359.825 713.662,359.825 
		713.662,406.775 706.752,406.775 680.883,373.377 680.883,406.775 672.738,406.775 	"/>
	<path fill="#333333" d="M726.145,348.416h8.569v7.526h-8.569V348.416z M726.249,359.825h8.304v46.951h-8.304V359.825z"/>
	<polygon fill="#333333" points="747.089,359.825 755.335,359.825 755.335,383.476 777.672,359.825 787.85,359.825 768.3,380.021 
		788.708,406.775 778.691,406.775 762.674,385.671 755.335,393.17 755.335,406.775 747.089,406.775 	"/>
	<path fill="#333333" d="M296.82,455.76v-27.104h8.221v26.729c0,8.678,4.5,13.445,11.918,13.445c7.286,0,11.838-4.447,11.838-13.07
		v-27.104h8.223v26.674c0,14.035-7.957,21.053-20.169,21.053C304.613,476.383,296.82,469.365,296.82,455.76 M305.819,417.354h8.383
		v7.502h-8.383V417.354z M319.638,417.354h8.33v7.502h-8.33V417.354z"/>
	<polygon fill="#333333" points="349.743,428.656 357.429,428.656 382.604,461.17 382.604,428.656 390.72,428.656 390.72,475.635 
		383.809,475.635 357.857,442.264 357.857,475.635 349.743,475.635 	"/>
	<path fill="#333333" d="M404.487,417.246h8.623v7.609h-8.623V417.246z M404.593,428.656h8.247v47.031h-8.247V428.656z"/>
	<polygon fill="#333333" points="422.751,428.656 431.911,428.656 446.053,464.813 460.139,428.656 469.084,428.656 
		449.534,475.955 442.303,475.955 	"/>
	<polygon fill="#333333" points="478.512,428.656 513.331,428.656 513.331,436.049 486.763,436.049 486.763,448.207 
		510.331,448.207 510.331,455.652 486.763,455.652 486.763,468.35 513.651,468.35 513.651,475.635 478.512,475.635 	"/>
	<path fill="#333333" d="M524.846,428.656h20.943c5.895,0,10.552,1.77,13.552,4.713c2.465,2.572,3.913,6.055,3.913,10.125v0.215
		c0,7.605-4.662,12.318-11.252,14.141l12.696,17.891h-9.694l-11.571-16.443h-10.337v16.443h-8.25V428.656z M545.199,451.957
		c5.895,0,9.642-3.105,9.642-7.82v-0.213c0-4.93-3.643-7.715-9.748-7.715h-11.997v15.748H545.199z"/>
	<path fill="#333333" d="M571.608,468.83l4.929-5.838c4.499,3.803,8.998,6.053,14.837,6.053c5.142,0,8.356-2.357,8.356-5.947v-0.105
		c0-3.375-1.822-5.197-10.608-7.18c-10.015-2.408-15.64-5.408-15.64-14.031v-0.162c0-8.088,6.697-13.604,16.017-13.604
		c6.856,0,12.321,2.086,17.088,5.838l-4.448,6.32c-4.23-3.16-8.462-4.822-12.747-4.822c-4.822,0-7.659,2.465-7.659,5.572v0.105
		c0,3.643,2.143,5.25,11.141,7.393c9.908,2.41,15.105,5.893,15.105,13.766v0.109c0,8.783-6.91,14.031-16.765,14.031
		C584.035,476.328,577.339,473.865,571.608,468.83"/>
	<path fill="#333333" d="M619.443,417.246h8.568v7.609h-8.568V417.246z M619.548,428.656h8.25v47.031h-8.25V428.656z"/>
	<polygon fill="#333333" points="653.51,436.316 638.616,436.316 638.616,428.602 676.756,428.602 676.756,436.316 661.865,436.316 
		661.865,475.74 653.51,475.74 	"/>
	<polygon fill="#333333" points="687.362,428.656 722.178,428.656 722.178,436.049 695.61,436.049 695.61,448.207 719.178,448.207 
		719.178,455.652 695.61,455.652 695.61,468.35 722.554,468.35 722.554,475.635 687.362,475.635 	"/>
	<path fill="#333333" d="M731.5,468.83l4.98-5.838c4.499,3.803,9,6.053,14.838,6.053c5.087,0,8.355-2.357,8.355-5.947v-0.105
		c0-3.375-1.93-5.197-10.658-7.18c-9.964-2.408-15.587-5.408-15.587-14.031v-0.162c0-8.088,6.694-13.604,16.016-13.604
		c6.855,0,12.265,2.086,17.033,5.838l-4.392,6.32c-4.232-3.16-8.464-4.822-12.803-4.822c-4.822,0-7.605,2.465-7.605,5.572v0.105
		c0,3.643,2.141,5.25,11.141,7.393c9.91,2.41,15.105,5.893,15.105,13.766v0.109c0,8.783-6.964,14.031-16.821,14.031
		C743.927,476.328,737.176,473.865,731.5,468.83"/>
	<path fill="#333333" d="M780.136,417.246h8.572v7.609h-8.572V417.246z M780.242,428.656h8.09v47.031h-8.09V428.656z"/>
	<path fill="#333333" d="M305.684,494.328h3.269l8.891,20.354h-3.722l-2.09-4.875h-9.481l-2.089,4.875h-3.617L305.684,494.328z
		 M310.774,506.648l-3.455-8.09l-3.455,8.09H310.774z"/>
	<polygon fill="#333333" points="393.505,494.488 396.773,494.488 407.593,508.416 407.593,494.488 411.126,494.488 
		411.126,514.682 408.127,514.682 397.041,500.166 397.041,514.682 393.505,514.682 	"/>
	<polygon fill="#333333" points="488.477,494.488 492.063,494.488 492.063,504.611 501.653,494.488 505.99,494.488 497.581,503.164 
		506.366,514.682 502.081,514.682 495.172,505.578 492.063,508.791 492.063,514.682 488.477,514.682 	"/>
	<path fill="#333333" d="M588.32,494.328h3.32l8.838,20.354h-3.747l-2.037-4.875h-9.533l-2.091,4.875h-3.589L588.32,494.328z
		 M593.409,506.648l-3.481-8.09l-3.48,8.09H593.409z"/>
	<path fill="#333333" d="M676.168,494.436h9c2.515,0,4.499,0.801,5.836,2.033c1.02,1.125,1.662,2.572,1.662,4.395v0.053
		c0,3.32-1.984,5.303-4.823,6.105l5.467,7.66h-4.181l-4.98-7.07h-4.447v7.07h-3.533V494.436z M684.896,504.506
		c2.52,0,4.128-1.342,4.128-3.43v-0.053c0-2.25-1.556-3.32-4.181-3.32h-5.143v6.803H684.896z"/>
	<path fill="#333333" d="M776.333,494.328h3.321l8.838,20.354h-3.643l-2.143-4.875h-9.533l-1.982,4.875h-3.749L776.333,494.328z
		 M781.422,506.648l-3.374-8.09l-3.591,8.09H781.422z"/>
	<path fill="#7A0429" d="M105.995,351.925v-22.927c-41.62,2.974-75.097,35.541-79.194,76.893h23.193
		C53.876,377.262,77.042,354.792,105.995,351.925"/>
	<path fill="#7A0429" d="M174.451,405.891h92.105c-4.34-79.249-68.509-142.67-148.108-145.802v91.836
		C147.402,354.765,170.569,377.316,174.451,405.891"/>
	<path fill="#7A0429" d="M49.511,418.318H11.292c1.955,51.959,43.04,93.846,94.703,97.008v-38.301
		C75.464,474.133,51.385,449.172,49.511,418.318"/>
	<path fill="#7A0429" d="M118.421,477.078v62.834c65.27-3.162,117.441-55.975,119.424-121.568h-62.912
		C173.058,449.225,148.981,474.025,118.421,477.078"/>
	<path fill="#7A0429" d="M150.105,414.998c0,20.568-16.686,37.281-37.199,37.281c-20.57,0-37.176-16.713-37.176-37.281
		c0-20.515,16.606-37.202,37.176-37.202C133.42,377.796,150.105,394.483,150.105,414.998"/>
</g>
</svg>
