<?xml version="1.0" encoding="utf-8"?>
<!-- Generator: Adobe Illustrator 16.0.0, SVG Export Plug-In . SVG Version: 6.00 Build 0)  -->
<!DOCTYPE svg PUBLIC "-//W3C//DTD SVG 1.0//EN" "http://www.w3.org/TR/2001/REC-SVG-20010904/DTD/svg10.dtd">
<svg version="1.0" id="Layer_1" xmlns="http://www.w3.org/2000/svg" xmlns:xlink="http://www.w3.org/1999/xlink" x="0px" y="0px"
	 width="800px" height="800px" viewBox="0 0 800 800" enable-background="new 0 0 800 800" xml:space="preserve">
<g>
	<path fill-rule="evenodd" clip-rule="evenodd" fill="#009FE3" d="M20.9,467.422c0.89,3.256,1.513,6.615,2.724,9.749
		c2.94,7.6,8.342,13.068,15.426,17.019c19.287,10.757,38.532,21.59,57.813,32.357c3.358,1.876,6.811,3.587,10.766,5.66
		c0-1.354,0-2.393,0-3.431c0.016-44.616-0.147-89.232,0.138-133.847c0.107-16.815,7.552-30.488,21.238-40.183
		c7.704-5.458,16.22-9.774,24.392-14.567c5.556-3.26,11.167-6.425,16.718-9.691c1.943-1.144,3.524-1.578,5.622,0.089
		c3.844,3.054,8.002,5.712,12.465,8.84c-4.124,2.38-7.827,4.537-11.55,6.661c-11.99,6.84-24.134,13.425-35.937,20.574
		c-9.999,6.058-15.813,15.241-16.331,27.019c-0.471,10.679-0.089,21.394-0.121,32.093c-0.074,24.747-0.205,49.493-0.246,74.241
		c-0.021,13.28,0.074,26.562,0.198,39.842c0.006,0.732,0.572,1.792,1.19,2.137c12.93,7.202,25.905,14.323,39.369,21.734
		c0.131-1.543,0.321-2.742,0.321-3.94c0.016-44.894,0.076-89.786-0.03-134.68c-0.028-11.77,3.182-22.363,10.16-31.789
		c5.14-6.942,12.048-11.735,19.508-15.925c18.052-10.138,36.008-20.446,54.006-30.679c2.471-1.404,4.947-2.802,7.45-4.147
		c1.701-0.914,1.396-1.627-0.064-2.466c-13.637-7.833-27.266-15.677-40.888-23.534c-9.161-5.285-18.298-10.615-27.464-15.892
		c-6.297-3.625-12.61-7.224-18.968-10.743c-0.629-0.348-1.791-0.371-2.403-0.019c-18.739,10.791-37.438,21.655-56.151,32.49
		c-6.532,3.783-13.279,7.23-19.599,11.337c-12.396,8.056-18.908,19.684-18.964,34.505c-0.132,35.192-0.042,70.388-0.056,105.58
		c-0.001,1.153-0.165,2.305-0.289,3.932c-4.388-2.538-8.229-5.096-12.356-7.043c-3.198-1.509-3.803-3.569-3.79-6.891
		c0.124-32.789-0.127-65.583,0.115-98.371c0.09-12.244,4.717-23.136,12.238-32.813c5.782-7.441,13.346-12.531,21.442-17.077
		c18.046-10.131,36.003-20.419,53.996-30.645c2.686-1.525,5.367-3.056,8.635-4.917c-3.129-1.858-5.76-3.444-8.413-4.99
		c-7.62-4.438-15.271-8.824-22.86-13.313c-1.65-0.975-2.954-1.169-4.754-0.129c-15.294,8.833-30.655,17.552-45.997,26.304
		c-10.553,6.021-21.113,12.025-31.657,18.059c-9.606,5.496-15.04,13.801-16.58,24.717c-0.074,0.523-0.304,1.024-0.461,1.536
		C20.9,377.257,20.9,422.34,20.9,467.422z"/>
	<path fill-rule="evenodd" clip-rule="evenodd" fill="#009FE3" d="M165.043,236.282c-2.507,0.533-5.235,0.604-7.48,1.683
		c-7.921,3.802-15.677,7.948-24.185,12.317c1.659,1.231,2.511,1.991,3.476,2.562c17.902,10.575,35.827,21.111,53.728,31.688
		c13.51,7.983,26.987,16.02,40.488,24.018c13.13,7.779,26.311,15.477,39.368,23.376c1.979,1.197,3.341,0.438,4.747-0.39
		c9.119-5.368,18.192-10.816,27.259-16.274c2.677-1.611,2.893-2.325,0.32-4.138c-5.76-4.063-11.621-8.02-17.689-11.598
		c-13.143-7.75-26.449-15.221-39.672-22.834c-16.422-9.454-32.827-18.936-49.239-28.406c-3.509-2.025-7.103-3.917-10.502-6.11
		c-4.97-3.209-10.504-4.714-16.184-5.894C167.999,236.282,166.521,236.282,165.043,236.282z"/>
	<path fill-rule="evenodd" clip-rule="evenodd" fill="#009FE3" d="M312.714,328.451c-4.53,2.563-8.353,4.69-12.14,6.876
		c-14.738,8.502-29.468,17.021-44.198,25.537c-9.234,5.339-18.467,10.684-27.698,16.027c-10.503,6.08-21.187,11.875-31.457,18.326
		c-10.024,6.298-15.369,15.771-15.646,27.67c-0.264,11.262-0.058,22.534-0.058,33.801c0,33.802,0,67.604,0.001,101.407
		c0,0.997,0,1.997,0,3.625c2.176-1.135,3.929-1.965,5.603-2.934c14.714-8.519,29.397-17.091,44.123-25.588
		c14.975-8.643,30.011-17.179,44.975-25.841c7.637-4.42,15.424-8.646,22.69-13.62c8.526-5.837,13.237-14.395,13.661-24.732
		c0.435-10.604,0.141-21.238,0.143-31.859c0.007-34.818,0.002-69.636,0.002-104.454
		C312.714,331.604,312.714,330.515,312.714,328.451z M209.452,454.927c0-5.097,0.067-9.505-0.036-13.909
		c-0.038-1.588,0.504-2.463,1.868-3.275c6.952-4.143,13.813-8.438,20.746-12.611c14.49-8.719,29.009-17.394,43.51-26.096
		c4.14-2.484,8.261-4.998,12.929-7.824c0,4.994,0.142,9.394-0.094,13.772c-0.063,1.193-0.974,2.797-1.982,3.413
		c-18.597,11.354-37.267,22.59-55.922,33.849C223.646,446.363,216.821,450.48,209.452,454.927z M209.495,498.948
		c0-5.443-0.023-10.462,0.043-15.479c0.006-0.416,0.541-0.953,0.965-1.213c3.366-2.063,6.771-4.062,10.153-6.099
		c18.583-11.193,37.16-22.398,55.747-33.587c3.824-2.302,7.68-4.552,12.055-7.142c0,5.395,0.065,10.157-0.074,14.915
		c-0.021,0.677-0.914,1.527-1.613,1.955c-8.862,5.413-17.768,10.755-26.653,16.131c-11.948,7.23-23.882,14.484-35.835,21.706
		C219.509,493.021,214.701,495.848,209.495,498.948z"/>
	<path fill-rule="evenodd" clip-rule="evenodd" fill="#E4040F" d="M419.316,412.699c0,17.943,0,35.539,0,53.371
		c2.266,0,4.498,0,6.967,0c0-11.9,0-23.777,0-35.654c0.236-0.029,0.473-0.058,0.709-0.087c1.961,11.928,3.922,23.856,5.869,35.712
		c0.527,0.12,0.791,0.221,1.061,0.235c6.863,0.387,6.811,0.379,7.791-6.388c1.463-10.104,3.01-20.194,4.982-30.271
		c0,12.113,0,24.226,0,36.51c2.643,0,4.996,0,7.584,0c0-17.699,0-35.367,0-53.237c-3.672,0-7.316,0-11.283,0
		c-1.857,12.303-3.719,24.638-5.578,36.974c-0.195-0.003-0.389-0.006-0.582-0.01c-1.35-8.286-2.701-16.574-4.049-24.862
		c-0.563-3.456-1.02-6.936-1.75-10.357c-0.16-0.75-1.244-1.801-1.957-1.847C425.959,412.584,422.818,412.699,419.316,412.699z"/>
	<path fill-rule="evenodd" clip-rule="evenodd" fill="#E4040F" d="M363.361,487.379c0,17.951,0,35.549,0,53.374
		c2.393,0,4.641,0,7.187,0c0-12.473,0-24.982,0-37.492c0.188-0.036,0.378-0.072,0.566-0.108c0.262,0.803,0.561,1.596,0.778,2.411
		c2.898,10.856,5.848,21.701,8.62,32.59c0.552,2.167,1.354,3.16,3.688,2.865c1.713-0.215,3.475-0.041,5.447-0.041
		c0-17.917,0-35.587,0-53.43c-2.333,0-4.593,0-7.185,0c0,10.224,0,20.393,0,30.563c-0.207,0.026-0.415,0.051-0.623,0.077
		c-1.686-6.372-3.373-12.743-5.057-19.116c-0.847-3.207-1.764-6.398-2.495-9.631c-0.34-1.505-0.916-2.185-2.565-2.1
		C369.06,487.479,366.382,487.379,363.361,487.379z"/>
	<path fill-rule="evenodd" clip-rule="evenodd" fill="#E4040F" d="M657.791,466.304c0-18.072,0-35.676,0-53.446
		c-2.328,0-4.498,0-7.02,0c0,10.303,0,20.56,0,30.818c-0.23,0.032-0.463,0.063-0.695,0.094c-1.285-4.849-2.572-9.695-3.857-14.542
		c-1.273-4.804-2.629-9.587-3.775-14.421c-0.404-1.709-1.18-2.227-2.85-2.151c-2.646,0.119-5.303,0.031-8.098,0.031
		c0,17.938,0,35.54,0,53.381c2.338,0,4.678,0,7.395,0c0-12.329,0-24.707,0-37.087c0.217-0.023,0.432-0.048,0.648-0.072
		c1.881,7.079,3.762,14.158,5.643,21.237c1.254,4.718,2.596,9.411,3.723,14.157c0.379,1.604,1.094,2.105,2.645,2.025
		C653.555,466.228,655.57,466.304,657.791,466.304z"/>
	<path fill-rule="evenodd" clip-rule="evenodd" fill="#E4040F" d="M352.719,437.88c5.485-4.624,7.032-15.004,3.349-20.68
		c-2.073-3.194-5.329-4.219-8.817-4.371c-4.591-0.2-9.196-0.049-14.038-0.049c0,17.771,0,35.427,0,53.833
		c6.082-0.346,12.261-0.227,18.263-1.194c4.273-0.688,6.49-4.36,6.983-8.656c0.294-2.554,0.229-5.155,0.237-7.735
		C358.71,444.336,357.496,440.241,352.719,437.88z M341.43,458.729c0-5.603,0-10.903,0-16.426c1.609,0,3.148-0.059,4.682,0.013
		c2.519,0.12,3.949,1.607,4.104,4.007c0.19,2.933,0.158,5.892,0.037,8.829c-0.094,2.277-1.48,3.499-3.77,3.568
		C344.856,458.769,343.227,458.729,341.43,458.729z M341.397,420.333c2.865,0.141,6.083-1.136,7.442,1.951
		c1.494,3.396,1.741,7.288-0.333,10.585c-1.58,2.511-4.428,1.944-7.109,1.624C341.397,429.779,341.397,425.228,341.397,420.333z"/>
	<path fill-rule="evenodd" clip-rule="evenodd" fill="#E4040F" d="M489.906,514.717c5.037-4.826,6.867-15.973,3.758-22.104
		c-1.729-3.407-4.77-4.924-8.326-5.094c-4.963-0.238-9.947-0.061-15.133-0.061c0,17.791,0,35.464,0,53.331c2.535,0,5.07,0,7.939,0
		c0-7.157,0-14.304,0-21.355c5.809-1.545,8.453,0.42,8.568,5.995c0.094,4.425,0.246,8.849,0.332,13.274
		c0.037,1.784,0.902,2.399,2.631,2.3c1.916-0.109,3.844-0.024,5.318-0.024c0-5.223-0.033-10.175,0.012-15.124
		C495.045,521.335,494.229,517.229,489.906,514.717z M478.348,495.042c1.09-0.063,1.902-0.146,2.715-0.151
		c4.348-0.03,5.541,1.148,5.609,5.539c0.025,1.471,0.014,2.942,0.004,4.414c-0.033,5.749-2.75,7.692-8.328,5.913
		C478.348,505.645,478.348,500.519,478.348,495.042z"/>
	<path fill-rule="evenodd" clip-rule="evenodd" fill="#E4040F" d="M745.535,439.538c0-4.98,0.068-9.963-0.018-14.941
		c-0.135-7.863-4.947-12.495-12.781-12.438c-7.691,0.059-12.563,4.666-12.662,12.332c-0.131,10.051-0.129,20.105-0.004,30.156
		c0.094,7.69,4.914,12.184,12.703,12.192c7.924,0.009,12.539-4.309,12.723-12.085c0.119-5.069,0.023-10.145,0.023-15.217
		C745.523,439.538,745.529,439.538,745.535,439.538z M737.289,439.382c0,4.891,0.039,9.781-0.014,14.67
		c-0.039,3.6-1.377,5.164-4.281,5.229c-3.033,0.069-4.67-1.618-4.691-5.175c-0.055-9.687-0.055-19.375,0-29.063
		c0.021-3.561,1.693-5.35,4.629-5.29c2.83,0.058,4.309,1.773,4.344,5.235C737.324,429.786,737.289,434.584,737.289,439.382z"/>
	<path fill-rule="evenodd" clip-rule="evenodd" fill="#E4040F" d="M689.037,439.428c0-4.796,0.08-9.593-0.018-14.388
		c-0.215-10.641-10.107-16.337-19.572-11.304c-4.232,2.251-5.787,6.188-5.867,10.589c-0.184,10.142-0.211,20.294-0.006,30.436
		c0.158,7.858,5.01,12.135,13.084,12.08c7.646-0.052,12.035-4.36,12.34-12.194c0.1-2.579,0.041-5.165,0.047-7.746
		c0.006-2.491,0.002-4.981,0.002-7.473C689.043,439.428,689.039,439.428,689.037,439.428z M680.77,439.52c-0.004,0-0.008,0-0.014,0
		c0,4.98,0.061,9.964-0.021,14.943c-0.053,3.341-1.479,4.795-4.383,4.81c-2.828,0.013-4.506-1.506-4.541-4.749
		c-0.109-9.962-0.107-19.928-0.004-29.889c0.035-3.324,1.896-5.012,4.756-4.881c2.701,0.123,4.146,1.783,4.189,5.097
		C680.818,429.74,680.77,434.63,680.77,439.52z"/>
	<path fill-rule="evenodd" clip-rule="evenodd" fill="#E4040F" d="M608.084,412.818c-2.938,0-5.4,0-8.109,0
		c0,17.683,0,35.344,0,53.246c2.49,0,5.086,0,7.68,0c1.535-6.765-1.928-14.134,3.035-20.793c0.473,1.011,0.873,1.754,1.174,2.535
		c1.893,4.896,3.979,9.73,5.559,14.725c0.982,3.105,2.584,4.304,5.736,3.806c1.256-0.197,2.57-0.031,4.297-0.031
		c-1.662-4.271-3.203-8.262-4.77-12.242c-1.924-4.884-3.781-9.794-5.846-14.616c-0.834-1.948-0.797-3.532,0.178-5.437
		c3.516-6.878,6.855-13.847,10.514-21.295c-2.727,0-5.076-0.16-7.381,0.097c-0.703,0.078-1.484,1.199-1.879,2.016
		c-2.885,5.97-5.68,11.985-8.512,17.981c-0.377,0.802-0.807,1.578-1.676,2.261C608.084,427.758,608.084,420.444,608.084,412.818z"/>
	<path fill-rule="evenodd" clip-rule="evenodd" fill="#E4040F" d="M432.088,391.457c-1.324-8.451-2.582-16.626-3.889-24.794
		c-1.396-8.732-2.908-17.445-4.207-26.192c-0.287-1.934-0.844-2.749-2.898-2.646c-3.123,0.158-6.262,0.042-9.754,0.042
		c-2.859,17.81-5.699,35.5-8.576,53.415c2.635,0,4.988,0,7.543,0c0.416-2.56,0.691-5.118,1.316-7.588
		c0.188-0.737,1.305-1.703,2.061-1.763c8.381-0.66,8.35-0.611,9.832,7.673c0.125,0.699,1.096,1.7,1.756,1.768
		C427.449,391.597,429.666,391.457,432.088,391.457z M416.715,348.504c0.201-0.023,0.4-0.047,0.602-0.07
		c1.266,8.661,2.533,17.321,3.818,26.11c-2.938,0-5.459,0-8.266,0C414.174,365.702,415.445,357.104,416.715,348.504z"/>
	<path fill-rule="evenodd" clip-rule="evenodd" fill="#E4040F" d="M340.735,487.485c-2.91,0-5.379,0-8.095,0
		c-0.056,0.981-0.148,1.87-0.149,2.759c-0.009,12.647,0.075,25.295-0.027,37.94c-0.091,11.152,7.808,14.816,16.821,12.691
		c4.646-1.096,7.84-4.9,7.938-10.47c0.25-14.197,0.083-28.401,0.083-42.817c-2.478,0-4.827,0-7.658,0c0,1.013,0,2.072,0,3.134
		c-0.001,11.909-0.002,23.816-0.004,35.725c0,0.831,0.032,1.665-0.027,2.492c-0.233,3.24-1.775,4.933-4.451,4.934
		c-2.834,0.002-4.403-1.73-4.414-5.182c-0.039-12.739-0.016-25.479-0.017-38.218C340.735,489.57,340.735,488.665,340.735,487.485z"
		/>
	<path fill-rule="evenodd" clip-rule="evenodd" fill="#E4040F" d="M485.113,455.045c-1.553-10.657-3.107-21.314-4.654-31.973
		c-0.41-2.827-0.693-5.679-1.264-8.474c-0.146-0.724-1.105-1.741-1.779-1.813c-2.178-0.231-4.395-0.087-6.834-0.087
		c2.768,17.942,5.49,35.6,8.238,53.417c4.172,0,8.191,0,12.543,0c2.715-17.653,5.436-35.348,8.215-53.413
		c-2.387,0-4.32-0.143-6.213,0.081c-0.617,0.074-1.521,1.043-1.621,1.702c-1.77,11.758-3.432,23.531-5.127,35.3
		c-0.256,1.777-0.561,3.547-0.842,5.32C485.555,455.085,485.334,455.065,485.113,455.045z"/>
	<path fill-rule="evenodd" clip-rule="evenodd" fill="#E4040F" d="M382.168,338.018c-2.777,0-5.323,0-8.33,0
		c2.739,17.837,5.443,35.454,8.178,53.254c4.068,0,8.091,0,12.551,0c2.718-17.602,5.451-35.298,8.217-53.213
		c-2.527,0-4.871,0-7.564,0c-2.078,14.137-4.161,28.313-6.245,42.489c-0.191,0.017-0.384,0.034-0.575,0.051
		C386.335,366.494,384.271,352.391,382.168,338.018z"/>
	<path fill-rule="evenodd" clip-rule="evenodd" fill="#E4040F" d="M408.43,487.509c2.779,17.994,5.506,35.634,8.26,53.46
		c3.861,0,7.455,0.078,11.037-0.077c0.588-0.024,1.539-0.994,1.641-1.637c2.117-13.287,4.137-26.589,6.174-39.887
		c0.596-3.883,1.184-7.765,1.758-11.545c-0.492-0.226-0.65-0.354-0.82-0.37c-6.746-0.645-6.637-0.628-7.551,5.983
		c-1.613,11.681-3.369,23.343-5.088,35.01c-0.072,0.493-0.359,0.957-0.781,2.032c-2.154-14.744-4.213-28.835-6.279-42.97
		C413.881,487.509,411.326,487.509,408.43,487.509z"/>
	<path fill-rule="evenodd" clip-rule="evenodd" fill="#E4040F" d="M507.543,524.946c-2.723,0-5.09,0-7.434,0
		c-1.498,5.214,0.383,11.615,4.154,14.292c4.258,3.022,11.855,3.082,15.947-0.124c4.533-3.55,4.979-8.594,4.354-13.808
		c-0.684-5.686-4.342-9.594-8.289-13.319c-2.139-2.019-4.277-4.086-6.096-6.383c-1.842-2.328-2.404-5.139-1.678-8.116
		c0.549-2.248,2.021-3.172,4.26-3.093c2.311,0.082,3.557,1.31,3.842,3.549c0.15,1.173,0.217,2.354,0.332,3.662
		c2.586,0,5.023,0,7.684,0c-0.016-4.972-0.357-9.725-4.771-12.696c-4.4-2.964-9.297-2.876-13.998-0.7
		c-4.52,2.091-6.813,8.422-5.752,14.734c0.648,3.859,2.367,7.165,5.068,9.942c2.703,2.776,5.557,5.406,8.229,8.212
		c2.182,2.292,3.355,5.083,3.076,8.308c-0.256,2.937-1.994,4.547-4.621,4.47c-2.682-0.078-4.172-1.685-4.297-4.707
		C507.498,527.889,507.543,526.606,507.543,524.946z"/>
	<path fill-rule="evenodd" clip-rule="evenodd" fill="#E4040F" d="M348.58,352.3c2.734,0,5.094,0,7.419,0
		c1.572-8.084-2.581-13.92-10.438-14.881c-7.75-0.947-13.172,3.796-13.674,11.661c-0.386,6.042,1.598,11.03,5.84,15.224
		c2.623,2.594,5.345,5.097,7.843,7.807c2.236,2.426,3.067,5.396,2.534,8.718c-0.36,2.241-1.571,3.438-3.871,3.536
		c-2.405,0.103-4.229-0.652-4.663-3.261c-0.284-1.719-0.375-3.469-0.576-5.432c-2.375,0-4.798,0-7.782,0
		c0.342,2.894,0.354,5.765,1.065,8.451c1.519,5.738,6.347,8.406,13.502,7.865c5.727-0.434,9.572-4.009,10.506-9.624
		c1.076-6.47-0.604-12.074-5.174-16.756c-2.19-2.244-4.584-4.287-6.798-6.509c-2.693-2.704-4.536-5.794-4.141-9.846
		c0.263-2.689,1.673-4.271,4.075-4.336c2.525-0.067,4.124,1.521,4.322,4.357C348.634,350.187,348.58,351.107,348.58,352.3z"/>
	<path fill-rule="evenodd" clip-rule="evenodd" fill="#E4040F" d="M442.857,375.593c-2.773,0-5.129,0-8.078,0
		c0.361,3.075,0.352,6.048,1.113,8.807c1.561,5.667,6.938,8.407,13.986,7.547c5.748-0.701,9.465-4.659,10.09-10.401
		c0.695-6.398-1.088-11.849-5.699-16.348c-2.311-2.255-4.721-4.413-6.982-6.717c-2.496-2.54-3.92-5.544-3.553-9.235
		c0.281-2.813,1.588-4.26,4.053-4.326c2.428-0.066,3.957,1.327,4.363,4.066c0.146,0.996,0.131,2.015,0.203,3.252
		c2.48,0,4.898,0,7.523,0c0.311-4.993-0.24-9.678-4.59-12.675c-4.357-3.001-9.217-2.904-13.982-0.767
		c-2.686,1.204-4.373,3.435-5.104,6.221c-1.715,6.54-0.973,12.671,3.783,17.821c2.627,2.844,5.523,5.438,8.236,8.206
		c2.42,2.471,3.863,5.363,3.555,8.956c-0.24,2.832-1.463,4.213-3.992,4.355c-2.91,0.163-4.551-1.113-4.896-4.037
		C442.715,378.866,442.857,377.376,442.857,375.593z"/>
	<path fill-rule="evenodd" clip-rule="evenodd" fill="#E4040F" d="M615.947,501.613c2.486,0,4.844,0,7.178,0
		c1.551-7.423-2.482-13.706-9.328-14.68c-8.578-1.22-14.07,3.071-14.768,11.236c-0.537,6.272,1.578,11.399,5.963,15.713
		c2.105,2.074,4.357,4,6.43,6.104c2.615,2.657,4.311,5.724,3.902,9.662c-0.258,2.471-1.477,3.926-3.951,4.205
		c-2.465,0.275-4.332-1.028-4.811-3.555c-0.32-1.691-0.275-3.45-0.404-5.339c-2.48,0-4.846,0-7.176,0
		c-1.707,8.372,2.043,15.077,8.977,16.164c5.182,0.812,10.293,0.477,13.369-4.357c3.545-5.573,3.334-11.711,0.066-17.339
		c-1.721-2.967-4.451-5.362-6.805-7.945c-1.488-1.636-3.189-3.08-4.666-4.726c-2.076-2.313-2.895-5.071-2.615-8.189
		c0.215-2.439,1.229-4.034,3.855-4.181c2.596-0.143,4.066,1.086,4.506,3.832C615.842,499.289,615.852,500.386,615.947,501.613z"/>
	<path fill-rule="evenodd" clip-rule="evenodd" fill="#E4040F" d="M442.039,540.979c7.176,0,14.174,0.038,21.168-0.073
		c0.535-0.009,1.438-1.021,1.508-1.64c0.203-1.807,0.072-3.65,0.072-5.763c-4.912,0-9.578,0-14.689,0
		c0-5.218-0.047-10.159,0.098-15.094c0.01-0.376,1.373-0.986,2.125-1.017c2.945-0.119,5.896-0.048,9.104-0.048
		c0-2.396,0-4.64,0-7.427c-2.744,0-5.568-0.153-8.367,0.044c-2.502,0.18-3.203-0.77-3.061-3.162c0.193-3.22,0.113-6.459,0.023-9.688
		c-0.047-1.686,0.594-2.283,2.256-2.253c4.041,0.074,8.082,0.024,12.318,0.024c0-2.586,0-4.834,0-7.297c-7.461,0-14.893,0-22.555,0
		C442.039,505.201,442.039,522.861,442.039,540.979z"/>
	<path fill-rule="evenodd" clip-rule="evenodd" fill="#E4040F" d="M526.461,466.071c0-2.403,0-4.6,0-7.182
		c-4.734,0-9.379,0-14.217,0c0-5.413,0-10.444,0-15.856c3.697,0,7.416,0,11.285,0c0-2.72,0-5.062,0-7.691c-3.779,0-7.43,0-11.279,0
		c0-5.106,0-9.928,0-15.003c4.703,0,9.281,0,14.088,0c0-2.583,0-4.919,0-7.454c-7.367,0-14.709,0-22.299,0
		c0,17.62,0,35.281,0,53.187C511.35,466.071,518.756,466.071,526.461,466.071z"/>
	<path fill-rule="evenodd" clip-rule="evenodd" fill="#E4040F" d="M579.859,442.972c3.809,0,7.387,0,11.213,0
		c0-2.521,0-4.858,0-7.579c-3.611,0-7.332,0-11.215,0c0-5.13,0-9.888,0-15c4.629,0,9.275,0,14.107,0c0-2.688,0-5.024,0-7.534
		c-7.438,0-14.775,0-22.34,0c0,17.693,0,35.349,0,53.232c7.377,0,14.779,0,22.361,0c0-2.338,0-4.604,0-7.254
		c-4.664,0-9.311,0-14.127,0C579.859,453.428,579.859,448.4,579.859,442.972z"/>
	<path fill-rule="evenodd" clip-rule="evenodd" fill="#E4040F" d="M580.416,517.369c3.865,0,7.445,0,11.238,0
		c0-2.455,0-4.703,0-7.392c-3.693,0-7.406,0-11.266,0c0-5.188,0-9.939,0-15.084c4.791,0,9.443,0,14.17,0c0-2.659,0-4.925,0-7.354
		c-7.5,0-14.84,0-22.387,0c0,17.718,0,35.383,0,53.251c7.344,0,14.684,0,22.285,0c0-2.29,0-4.622,0-7.319c-4.572,0-9.221,0-14.041,0
		C580.416,527.995,580.416,522.882,580.416,517.369z"/>
	<path fill-rule="evenodd" clip-rule="evenodd" fill="#E4040F" d="M550.25,466.198c3.035,0,5.504,0,8.32,0
		c0-15.258,0-30.414,0-45.844c3.066,0,5.793,0,8.715,0c0-2.613,0-4.953,0-7.484c-8.459,0-16.898,0-25.57,0c0,2.351,0,4.681,0,7.318
		c2.719,0,5.441,0,8.535,0C550.25,435.634,550.25,450.785,550.25,466.198z"/>
	<path fill-rule="evenodd" clip-rule="evenodd" fill="#E4040F" d="M558.82,494.857c3.117,0,5.838,0,8.668,0c0-2.635,0-4.895,0-7.317
		c-8.541,0-16.906,0-25.754,0c0,2.063-0.086,4.137,0.072,6.191c0.033,0.416,0.959,1.026,1.521,1.087
		c1.461,0.159,2.959,0.18,4.424,0.035c2.176-0.213,2.844,0.613,2.828,2.798c-0.088,13.105-0.039,26.212-0.041,39.317
		c0,4.013-0.006,4.013,4.012,4.009c0.553,0,1.119-0.069,1.658,0.011c2.113,0.318,2.67-0.617,2.652-2.646
		c-0.086-10.151-0.039-20.305-0.041-30.456C558.82,503.664,558.82,499.443,558.82,494.857z"/>
	<path fill-rule="evenodd" clip-rule="evenodd" fill="#E4040F" d="M386.817,412.829c-2.821,0-5.284,0-8.003,0
		c0,17.729,0,35.45,0,53.329c7.198,0,14.347,0,21.701,0c0-2.365,0-4.622,0-7.3c-4.44,0-8.893,0-13.698,0
		C386.817,443.288,386.817,428.126,386.817,412.829z"/>
	<path fill-rule="evenodd" clip-rule="evenodd" fill="#E4040F" d="M703.342,412.824c-2.926,0-5.383,0-8.104,0
		c0,17.695,0,35.344,0,53.241c7.109,0,14.322,0,21.713,0c0-2.287,0-4.554,0-7.236c-4.436,0-8.895,0-13.609,0
		C703.342,443.329,703.342,428.238,703.342,412.824z"/>
	<path fill-rule="evenodd" clip-rule="evenodd" fill="#E4040F" d="M764.736,412.847c-2.559,0-5.016,0-7.811,0
		c-0.057,1.088-0.156,2.154-0.156,3.222c-0.012,11.627-0.006,23.256-0.004,34.883c0.004,7.377-0.164,7.567-7.789,8.364
		c0,1.931-0.111,3.926,0.076,5.892c0.051,0.518,1.006,1.319,1.586,1.356c6.904,0.461,13.994-1.139,14.219-11.302
		c0.301-13.651,0.119-27.313,0.131-40.971C764.988,413.854,764.84,413.419,764.736,412.847z"/>
	<path fill-rule="evenodd" clip-rule="evenodd" fill="#E4040F" d="M396.389,540.828c2.713,0,5.248,0,7.945,0
		c0-17.749,0-35.354,0-53.204c-2.568,0-5.169,0-7.945,0C396.389,505.346,396.389,523.015,396.389,540.828z"/>
	<path fill-rule="evenodd" clip-rule="evenodd" fill="#E4040F" d="M529.975,487.615c0,17.74,0,35.4,0,53.193c2.717,0,5.25,0,7.939,0
		c0-17.766,0-35.358,0-53.193C535.33,487.615,532.732,487.615,529.975,487.615z"/>
	<path fill-rule="evenodd" clip-rule="evenodd" fill="#E4040F" d="M629.162,487.608c0,17.692,0,35.286,0,53.126
		c2.641,0,5.238,0,7.984,0c0-17.707,0-35.301,0-53.126C634.523,487.608,631.926,487.608,629.162,487.608z"/>
	<path fill-rule="evenodd" clip-rule="evenodd" fill="#E4040F" d="M372.13,412.84c-2.676,0-5.209,0-7.913,0
		c0,17.795,0,35.443,0,53.279c2.635,0,5.169,0,7.913,0C372.13,448.462,372.13,430.81,372.13,412.84z"/>
	<path fill-rule="evenodd" clip-rule="evenodd" fill="#E4040F" d="M771.227,412.901c0,17.757,0,35.355,0,53.181
		c2.582,0,5.109,0,7.873,0c0-17.622,0-35.292,0-53.181C776.627,412.901,774.094,412.901,771.227,412.901z"/>
	<path fill-rule="evenodd" clip-rule="evenodd" fill="#E4040F" d="M404.914,412.689c0,17.998,0,35.578,0,53.388
		c2.59,0,5.107,0,7.967,0c0.064-1.111,0.186-2.263,0.188-3.413c0.014-15.495-0.051-30.989,0.068-46.483
		c0.021-2.719-0.596-3.959-3.504-3.527C408.197,412.865,406.703,412.689,404.914,412.689z"/>
	<path fill-rule="evenodd" clip-rule="evenodd" fill="#E4040F" d="M361.504,391.293c2.897,0,5.429,0,8.102,0
		c0-17.812,0-35.451,0-52.991c-0.356-0.187-0.509-0.327-0.676-0.345c-7.43-0.815-7.426-0.814-7.424,6.585
		c0.002,14.472-0.002,28.943-0.002,43.416C361.504,389.037,361.504,390.116,361.504,391.293z"/>
	<path fill-rule="evenodd" clip-rule="evenodd" fill="#E4040F" d="M412.359,409.554c0-2.328,0-4.49,0-6.82c-2.258,0-4.428,0-6.822,0
		c0,2.261,0,4.492,0,6.82C407.857,409.554,410.02,409.554,412.359,409.554z"/>
	<path fill-rule="evenodd" clip-rule="evenodd" fill="#E4040F" d="M354.432,484.01c0-2.437,0-4.526,0-6.825c-2.262,0-4.417,0-6.82,0
		c0,2.201,0,4.42,0,6.825C349.866,484.01,352.021,484.01,354.432,484.01z"/>
	<path fill-rule="evenodd" clip-rule="evenodd" fill="#E4040F" d="M364.803,409.611c2.322,0,4.423,0,6.754,0c0-2.26,0-4.489,0-6.883
		c-2.23,0-4.396,0-6.754,0C364.803,404.982,364.803,407.146,364.803,409.611z"/>
	<path fill-rule="evenodd" clip-rule="evenodd" fill="#E4040F" d="M771.787,402.782c0,2.294,0,4.455,0,6.778c2.305,0,4.465,0,6.82,0
		c0-2.243,0-4.403,0-6.778C776.414,402.782,774.248,402.782,771.787,402.782z"/>
	<path fill-rule="evenodd" clip-rule="evenodd" fill="#E4040F" d="M629.676,477.145c0,2.382,0,4.478,0,6.813
		c2.342,0,4.563,0,6.918,0c0-2.321,0-4.481,0-6.813C634.277,477.145,632.117,477.145,629.676,477.145z"/>
	<path fill-rule="evenodd" clip-rule="evenodd" fill="#E4040F" d="M335.998,484.045c2.359,0,4.448,0,6.723,0c0-2.306,0-4.466,0-6.85
		c-2.169,0-4.318,0-6.723,0C335.998,479.375,335.998,481.593,335.998,484.045z"/>
	<path fill-rule="evenodd" clip-rule="evenodd" fill="#E4040F" d="M537.371,477.088c-2.396,0-4.492,0-6.82,0
		c0,2.265,0,4.423,0,6.846c2.205,0,4.432,0,6.82,0C537.371,481.684,537.371,479.516,537.371,477.088z"/>
	<path fill-rule="evenodd" clip-rule="evenodd" fill="#E4040F" d="M403.783,483.965c0-2.366,0-4.532,0-6.842
		c-2.324,0-4.489,0-6.831,0c0,2.288,0,4.451,0,6.842C399.185,483.965,401.348,483.965,403.783,483.965z"/>
	<path fill-rule="evenodd" clip-rule="evenodd" fill="#E4040F" d="M369.137,334.731c0-2.396,0-4.486,0-6.79c-2.28,0-4.439,0-6.84,0
		c0,2.191,0,4.412,0,6.79C364.546,334.731,366.698,334.731,369.137,334.731z"/>
</g>
</svg>
