<?xml version="1.0" encoding="UTF-8"?>
<!DOCTYPE svg PUBLIC "-//W3C//DTD SVG 1.1//EN" "http://www.w3.org/Graphics/SVG/1.1/DTD/svg11.dtd">
<!-- Creator: CorelDRAW -->
<svg xmlns="http://www.w3.org/2000/svg" xml:space="preserve" width="1434px" height="1710px" style="shape-rendering:geometricPrecision; text-rendering:geometricPrecision; image-rendering:optimizeQuality; fill-rule:evenodd; clip-rule:evenodd"
viewBox="0 0 1472.33 1754.64"
 xmlns:xlink="http://www.w3.org/1999/xlink">
 <defs>
  <style type="text/css">
   <![CDATA[
    .fil3 {fill:#114F98}
    .fil1 {fill:#86CCCD}
    .fil0 {fill:#E31E24}
    .fil2 {fill:#86CCCD;fill-rule:nonzero}
   ]]>
  </style>
 </defs>
 <g id="Layer_x0020_1">
  <metadata id="CorelCorpID_0Corel-Layer"/>
  <path class="fil0" d="M974.026 646.213c0,53.8036 43.6132,97.4192 97.4192,97.4192 53.8036,0 97.4217,-43.6156 97.4217,-97.4192 0,-53.8036 -43.618,-97.4192 -97.4217,-97.4192 -53.8061,0 -97.4192,43.6156 -97.4192,97.4192zm-896.828 95.1038c0,0 236.693,-130.162 397.293,-340.223 160.599,-210.059 240.897,-401.094 240.897,-401.094 0,0 180.738,327.469 348.233,477.589 183.426,164.404 408.705,298.371 408.705,298.371 0,0 -263.328,87.9089 -401.097,217.669 -137.77,129.763 -266.515,306.484 -266.515,306.484 0,0 137.688,-285.648 240.816,-358.337 103.128,-72.6898 250.978,-169.619 250.978,-169.619 0,0 -248.384,34.1173 -309.66,-34.3659 -61.2774,-68.4856 -95.642,-217.947 -95.642,-217.947 0,0 -13.8843,229.561 -29.4197,349.91 -13.0454,101.074 -97.909,442.957 -97.909,442.957 0,0 -17.6533,-318.679 12.7848,-445.035 30.4393,-126.358 84.1047,-390.085 84.1047,-390.085 0,0 -64.6803,91.7142 -110.736,141.577 -46.0559,49.8625 -96.1475,65.1179 -96.1475,65.1179 0,0 -36.6171,-196.899 -236.78,-128.511 -168.209,57.4708 -94.46,238.506 -94.46,238.506 0,0 -4.14602,8.31264 -100.067,-6.90639 -95.9196,-15.2178 -145.38,-46.0559 -145.38,-46.0559l0.00242457 -0.00242457z"/>
  <path class="fil1" d="M88.6144 802.592c0,0 237.093,114.544 401.497,72.691 164.402,-41.8541 290.358,-229.484 290.358,-229.484 0,0 -103.127,233.287 -99.3225,412.912 3.80536,179.622 72.691,543.073 72.691,543.073 0,0 -122.554,-416.719 -290.762,-558.294 -168.207,-141.577 -374.463,-240.899 -374.463,-240.899l0.00121229 0.00121229z"/>
  <path class="fil2" d="M364.657 710.729c0,-64.1723 52.0204,-116.194 116.194,-116.194 64.1723,0 116.194,52.0228 116.194,116.194 0,64.1747 -52.0216,116.194 -116.194,116.194 -64.1735,0 -116.194,-52.0192 -116.194,-116.194z"/>
  <path class="fil3" d="M46.502 1582.34c-7.82288,0 -11.6622,-3.6902 -11.5155,-11.0742 0.149111,-6.78758 4.35574,-10.2596 12.6247,-10.4063 1.62567,0 3.6902,0.295798 6.20205,0.883756 4.42848,1.03287 6.64211,4.1351 6.64211,9.30429 0,1.76994 -0.367322,3.46835 -1.10682,5.09281 -1.77236,4.1351 -6.05173,6.19963 -12.8466,6.19963l0 0zm38.5398 -0.220636c-8.56358,-0.146687 -12.849,-3.69262 -12.849,-10.6293 0,-7.23492 4.28422,-10.7784 12.849,-10.6317 8.41326,0.146687 12.6199,3.91204 12.6199,11.2949 0,6.7888 -4.20663,10.1117 -12.6199,9.96498l0 0.00121229zm-71.9806 124.245c-0.294585,-2.21484 -0.443696,-4.283 -0.443696,-6.20205l0 -109.845 15.9476 0 0 110.067c0,4.87217 1.17955,10.188 3.5423,15.9476 2.50943,6.34631 5.90868,11.5882 10.188,15.7233 8.56237,8.41568 17.3502,12.6223 26.3575,12.6223l31.4467 0 0 -154.36 15.9488 0 0 159.453 -47.1773 0c-2.9507,0 -6.05294,-0.220636 -9.29944,-0.661908 -14.7644,-1.91905 -25.7647,-6.27479 -32.9996,-13.0672 -7.23492,-6.79486 -11.7361,-16.6859 -13.5109,-29.6767zm158.477 -88.5877l-13.7279 -19.9312 13.0599 -9.08123 89.4763 128.896c-0.739494,-42.0808 -3.83931,-84.5278 -9.30429,-127.343l14.1765 0 0 162.33 -88.1465 -127.342c0.442484,25.8386 3.02829,67.3279 7.75378,124.465l-13.2879 0 0 -131.994zm164.233 131.994l-15.9476 0 0 -159.453 15.9476 0 0 159.453zm-8.19262 -167.431c-7.82773,0 -11.667,-3.6902 -11.5179,-11.0742 0.149111,-6.78758 4.35574,-10.2596 12.6247,-10.4063 1.62204,0 3.69141,0.295798 6.20084,0.883756 4.42727,1.03408 6.64575,4.13632 6.64575,9.30429 0,1.77115 -0.369747,3.46956 -1.10924,5.09281 -1.77115,4.13632 -6.05294,6.19963 -12.8442,6.19963zm114.183 172.301l-62.6727 -164.323 16.8289 0 52.0446 136.2c9.89103,-27.9032 24.0675,-73.3045 42.5221,-136.2l14.8396 0 -63.5613 164.323 -0.00121229 0zm171.32 -4.86975l-64.4475 0 0 -159.453 60.9076 0 0 14.1716c-14.6189,-6.34995 -29.6016,-9.96498 -44.9588,-10.85l0 69.9828c11.2197,0.589171 22.2927,-0.665545 33.219,-3.76415l0 11.2924c-1.77115,-0.442484 -4.13389,-0.88618 -7.08581,-1.32745 -9.44855,-1.32866 -18.1637,-1.77236 -26.1332,-1.32866l0 76.6261c7.96956,-0.737069 16.0179,-1.91905 24.1366,-3.53987l1.55173 -0.22306c8.56237,-1.62325 16.167,-3.32287 22.8104,-5.09523l0 13.5085 0 0zm48.1859 0l0 -159.453 29.678 0c13.5837,0 23.9923,3.61382 31.2273,10.8512 7.67861,7.67619 11.2197,17.7903 10.6293,30.3386 -0.737069,13.5837 -8.93212,26.1344 -24.5815,37.6499 -1.92026,1.47656 -4.28058,2.95191 -7.08702,4.42848 7.08702,3.98842 13.2879,9.96498 18.6037,17.9418 4.283,6.49542 7.60466,16.0179 9.9662,28.5687 2.21363,11.6622 5.53529,21.5569 9.9662,29.6731l-21.4841 0c-2.06695,-5.90262 -3.6902,-16.3852 -4.87217,-31.4479 -0.294585,-4.28179 -1.54809,-10.6293 -3.76415,-19.0462 -0.589171,-2.36274 -1.17955,-4.35574 -1.76994,-5.97778 -2.65975,-7.5295 -5.16918,-12.3277 -7.5295,-14.3971 -2.36274,-2.21363 -6.42511,-3.39561 -12.1835,-3.54593 -0.737069,0 -1.993,0.149111 -3.76536,0.443696l0.443696 -2.87433c8.71391,0.144262 16.8326,-6.13053 24.3621,-18.8268 4.13268,-7.08823 6.20084,-14.8396 6.20084,-23.2553 0,-12.1083 -3.98842,-21.8527 -11.9604,-29.2318 -7.82288,-7.53193 -16.5344,-10.2644 -26.1332,-8.19747l0 156.356 -15.9464 0 0 0.00242457zm137.442 2.21363c-7.38524,-0.739494 -13.66,-2.87554 -18.828,-6.42026l1.32866 -16.6107c1.92026,2.95555 4.283,5.68319 7.08581,8.19505 8.12231,7.23492 16.0967,10.6317 23.9196,10.188 7.38403,-0.441272 13.2163,-2.87675 17.4981,-7.30887 4.42727,-4.57395 6.64575,-10.7809 6.64575,-18.6037 0,-5.31466 -1.25835,-11.4415 -3.76657,-18.3831 -2.36274,-6.93912 -5.02129,-12.5459 -7.97441,-16.8277 -8.26657,-11.8161 -17.0532,-24.5876 -26.3527,-38.3167 -1.91905,-2.51185 -5.75835,-7.60224 -11.5179,-15.2809 -1.33109,-1.77236 -2.36032,-3.47198 -3.10224,-5.09281 -2.80523,-6.20205 -3.76536,-11.9616 -2.87918,-17.2763 0.149111,-1.03408 0.516433,-2.43669 1.10924,-4.20663 2.06816,-5.90868 5.24192,-10.1177 9.52129,-12.6272 4.283,-2.65612 10.7784,-4.20663 19.4899,-4.64911 11.8101,-0.590383 20.8901,1.03529 27.24,4.8746l0 15.2809c-9.00607,-11.2233 -19.1202,-16.538 -30.3386,-15.9464 -4.5788,0.290948 -8.269,1.84389 -11.0754,4.65033 -2.65854,2.65854 -3.98478,5.83109 -3.98478,9.52129 0,2.95313 1.18198,6.57422 3.5423,10.856l10.8548 15.0566 15.9464 23.6953c1.03044,1.47899 3.17376,4.50485 6.42026,9.08123 2.36274,3.25135 4.94612,7.53072 7.75256,12.8442 6.05173,11.3724 9.08002,22.1484 9.08002,32.3365 0,13.8807 -4.35574,24.5827 -13.0696,32.1122 -8.56237,7.52829 -20.0791,10.479 -34.5453,8.85574l0 0.00242457zm113.294 -2.21363l-15.9488 0 0 -159.453 15.9488 0 0 159.453zm-8.19505 -167.43c-7.82773,0 -11.667,-3.6902 -11.5179,-11.0742 0.149111,-6.78758 4.35574,-10.2596 12.6272,-10.4063 1.62083,0 3.6902,0.295798 6.19963,0.883756 4.42848,1.03287 6.64453,4.1351 6.64453,9.30429 0,1.76994 -0.369747,3.46835 -1.10924,5.09281 -1.76994,4.1351 -6.05294,6.19963 -12.8442,6.19963zm107.32 11.9604c-11.5167,0.739494 -30.1204,3.2465 -55.81,7.52829l0 -11.5119 127.563 0 0 11.5119c-11.3664,-2.50701 -29.9701,-4.72549 -55.8088,-6.64211l0 154.583 -15.944 0 0 -155.47 0 0zm179.513 155.47l-64.4475 0 0 -159.453 60.9052 0 0 14.1716c-14.6165,-6.34995 -29.6016,-9.96498 -44.9588,-10.85l0 69.9828c11.2221,0.589171 22.2927,-0.665545 33.219,-3.76415l0 11.2924c-1.77115,-0.442484 -4.13147,-0.88618 -7.08338,-1.32745 -9.45098,-1.32866 -18.1637,-1.77236 -26.1357,-1.32866l0 76.6261c7.97199,-0.737069 16.0179,-1.91905 24.139,-3.53987l1.55173 -0.22306c8.56237,-1.62325 16.1646,-3.32287 22.8104,-5.09523l0 13.5085 0 0zm62.3624 2.21363c-7.38524,-0.739494 -13.66,-2.87554 -18.8256,-6.42026l1.32624 -16.6107c1.92026,2.95555 4.283,5.68319 7.08702,8.19505 8.1211,7.23492 16.0955,10.6317 23.9184,10.188 7.38403,-0.441272 13.2163,-2.87675 17.4981,-7.30887 4.42727,-4.57395 6.64575,-10.7809 6.64575,-18.6037 0,-5.31466 -1.25835,-11.4415 -3.76657,-18.3831 -2.36153,-6.93912 -5.02129,-12.5459 -7.97441,-16.8277 -8.26657,-11.8161 -17.0532,-24.5876 -26.3527,-38.3167 -1.91905,-2.51185 -5.75835,-7.60224 -11.5179,-15.2809 -1.33109,-1.77236 -2.36032,-3.47198 -3.10224,-5.09281 -2.80523,-6.20205 -3.76293,-11.9616 -2.87918,-17.2763 0.149111,-1.03408 0.516433,-2.43669 1.10682,-4.20663 2.0718,-5.90868 5.24192,-10.1177 9.52371,-12.6272 4.283,-2.65612 10.776,-4.20663 19.4911,-4.64911 11.8113,-0.590383 20.8901,1.03529 27.2413,4.8746l0 15.2809c-9.00849,-11.2233 -19.1202,-16.538 -30.3423,-15.9464 -4.5788,0.290948 -8.26778,1.84389 -11.0742,4.65033 -2.66097,2.65854 -3.98599,5.83109 -3.98599,9.52129 0,2.95313 1.18319,6.57422 3.54351,10.856l10.8512 15.0566 15.9488 23.6953c1.02923,1.47899 3.17376,4.50485 6.42026,9.08123 2.36274,3.25135 4.94855,7.53072 7.75256,12.8442 6.05294,11.3724 9.08123,22.1484 9.08123,32.3365 0,13.8807 -4.35817,24.5827 -13.0696,32.1122 -8.56479,7.52829 -20.0803,10.479 -34.5453,8.85574l0 0.00242457zm113.294 -2.21363l-15.9464 0 0 -159.453 15.9464 0 0 159.453zm-8.19384 -167.431c-7.82773,0 -11.667,-3.6902 -11.5179,-11.0742 0.146687,-6.78758 4.35574,-10.2596 12.626,-10.4063 1.62083,0 3.6902,0.295798 6.19963,0.883756 4.42727,1.03408 6.64575,4.13632 6.64575,9.30429 0,1.77115 -0.369747,3.46956 -1.10924,5.09281 -1.77115,4.13632 -6.05294,6.19963 -12.8442,6.19963zm-1306.73 -145.811l-51.3766 -105.862 17.9333 0 47.838 99.2171c18.0121,-33.5148 32.8505,-66.5884 44.5175,-99.2171l14.8384 0 -57.8042 103.643 0 55.81 -15.9464 0 0 -53.5915 0 0zm117.169 -113.836c-7.8253,0 -11.6622,-3.6902 -11.5167,-11.0742 0.147899,-6.79001 4.35453,-10.262 12.6235,-10.4087 1.62567,0 3.6902,0.29701 6.20205,0.884968 4.43211,1.03529 6.64211,4.13753 6.64211,9.30308 0,1.77115 -0.367322,3.47198 -1.1056,5.09402 -1.77357,4.1351 -6.05294,6.20084 -12.8454,6.20084zm38.5385 -0.220636c-8.56479,-0.149111 -12.849,-3.69383 -12.849,-10.6317 0,-7.23492 4.28422,-10.776 12.849,-10.6305 8.41326,0.146687 12.6223,3.91204 12.6223,11.2949 0,6.79122 -4.20905,10.1117 -12.6223,9.9662l0 0.00121229zm-71.9806 124.242c-0.294585,-2.21363 -0.443696,-4.28179 -0.443696,-6.20084l0 -109.846 15.9488 0 0 110.068c0,4.8746 1.17834,10.1905 3.53987,15.9464 2.51185,6.34631 5.90868,11.5894 10.1905,15.7233 8.56237,8.41568 17.3502,12.6223 26.3551,12.6223l31.4479 0 0 -154.36 15.9476 0 0 159.453 -47.1773 0c-2.94828,0 -6.05052,-0.216999 -9.29944,-0.660695 -14.7644,-1.91905 -25.7647,-6.27479 -32.9996,-13.0672 -7.23492,-6.79486 -11.7361,-16.6859 -13.5109,-29.678l0.00121229 0zm141.088 43.4059l-15.9476 0 0 -159.453 15.9476 0 0 69.5415c24.0639,-24.0687 44.5891,-47.2488 61.5683,-69.5415l20.3737 0 -51.3791 46.0632c16.6847,6.64453 29.2355,18.1625 37.6487,34.5526 2.80523,5.46013 4.79822,10.776 5.97899,15.9428 0.888605,4.28179 2.73492,16.0216 5.53772,35.2132 0.294585,2.21606 1.47656,6.05536 3.54108,11.5155 2.21848,6.20084 4.80065,11.5907 7.75378,16.1658l-20.8161 0c-2.36274,0 -3.98842,-1.9142 -4.8746,-5.75351 -0.884968,-3.83931 -1.69477,-12.6999 -2.43669,-26.5781 -0.149111,-1.91905 -0.367322,-4.72549 -0.660695,-8.41568 -2.36517,-16.6835 -4.65518,-28.5687 -6.86881,-35.6545 -2.06573,-6.64696 -5.16555,-12.626 -9.30186,-17.9418 -5.46256,-7.08581 -11.8113,-12.4017 -19.0462,-15.944l-27.0194 27.0182 0 83.2694 0.00121229 0zm116.285 2.21484c-7.38403,-0.740706 -13.6612,-2.87554 -18.828,-6.42147l1.32988 -16.6095c1.91905,2.95434 4.27937,5.68562 7.08581,8.19505 8.1211,7.23492 16.0955,10.6305 23.9184,10.188 7.38524,-0.441272 13.2163,-2.87796 17.4993,-7.30887 4.42605,-4.57516 6.64211,-10.7809 6.64211,-18.6037 0,-5.31587 -1.25593,-11.4415 -3.76293,-18.3831 -2.36274,-6.93912 -5.0225,-12.5472 -7.97441,-16.8289 -8.26657,-11.8149 -17.0532,-24.5851 -26.3539,-38.3155 -1.91905,-2.50943 -5.75835,-7.60224 -11.5167,-15.2821 -1.3323,-1.77236 -2.36274,-3.47077 -3.10224,-5.09281 -2.80644,-6.20084 -3.76657,-11.9604 -2.87918,-17.2763 0.147899,-1.03287 0.516433,-2.43548 1.10803,-4.20663 2.06695,-5.90747 5.24192,-10.1141 9.5225,-12.6235 4.28179,-2.65733 10.776,-4.20905 19.4899,-4.65275 11.8089,-0.589171 20.8901,1.03529 27.2388,4.87581l0 15.2809c-9.00485,-11.2233 -19.1202,-16.5392 -30.3386,-15.9464 -4.5788,0.293373 -8.269,1.84389 -11.0742,4.64911 -2.65975,2.65975 -3.98599,5.8323 -3.98599,9.5225 0,2.95434 1.18319,6.57301 3.54351,10.856l10.8512 15.0554 15.9488 23.6965c1.02923,1.47778 3.17134,4.50485 6.42026,9.08123 2.36032,3.25014 4.94612,7.53314 7.75256,12.8442 6.05294,11.3724 9.08123,22.1484 9.08123,32.3365 0,13.8807 -4.35817,24.5815 -13.0696,32.111 -8.56237,7.5295 -20.0803,10.4802 -34.5453,8.85696l-0.00121229 0.00242457zm129.569 -2.21484l-64.4499 0 0 -159.453 60.9064 0 0 14.1716c-14.6189,-6.34874 -29.604,-9.96498 -44.9576,-10.8487l0 69.9816c11.2185,0.590383 22.2927,-0.665545 33.2178,-3.76293l0 11.2924c-1.76994,-0.443696 -4.13268,-0.88618 -7.08581,-1.32745 -9.44855,-1.32988 -18.16,-1.77236 -26.132,-1.32988l0 76.6273c7.97199,-0.737069 16.0179,-1.92026 24.139,-3.54108l1.5493 -0.22306c8.56479,-1.62204 16.167,-3.32166 22.8128,-5.09523l0 13.5085zm31.9049 0l-15.9488 0 0 -159.453 15.9488 0 0 69.5415c24.0626,-24.0687 44.5866,-47.2488 61.5659,-69.5415l20.3737 0 -51.3779 46.0632c16.6835,6.64453 29.2343,18.1625 37.6487,34.5526 2.80402,5.46013 4.79944,10.776 5.97778,15.9428 0.888605,4.28179 2.73492,16.0216 5.53772,35.2132 0.29701,2.21606 1.47899,6.05536 3.54351,11.5155 2.21848,6.20084 4.79944,11.5907 7.75256,16.1658l-20.8174 0c-2.36153,0 -3.98842,-1.9142 -4.87217,-5.75351 -0.88618,-3.83931 -1.6972,-12.6999 -2.43791,-26.5781 -0.146687,-1.91905 -0.367322,-4.72549 -0.660695,-8.41568 -2.36517,-16.6835 -4.65396,-28.5687 -6.86638,-35.6545 -2.06816,-6.64696 -5.16797,-12.626 -9.30308,-17.9418 -5.46013,-7.08581 -11.8113,-12.4017 -19.0474,-15.944l-27.0158 27.0182 0 83.2694 -0.00121229 0zm246.644 0l-15.9464 0 0 -159.453 15.9464 0 0 159.453zm-8.19505 -167.427c-7.82773,0 -11.6646,-3.6902 -11.5179,-11.0742 0.149111,-6.79001 4.35574,-10.262 12.6272,-10.4087 1.62083,0 3.6902,0.29701 6.19963,0.884968 4.42848,1.03529 6.64453,4.13753 6.64453,9.30308 0,1.77115 -0.369747,3.47198 -1.10924,5.09402 -1.76994,4.1351 -6.05173,6.20084 -12.8442,6.20084zm46.3008 167.427l-15.9464 0 0 -159.453 15.9464 0 0 71.3115 68.6553 0 0 -71.3115 15.9464 0 0 159.453 -15.9464 0 0 -83.2694 -68.6553 0 0 83.2694zm151.498 -155.47c-11.5179,0.739494 -30.1204,3.24771 -55.81,7.5295l0 -11.5131 127.565 0 0 11.5131c-11.3688,-2.50701 -29.9738,-4.72306 -55.8112,-6.64332l0 154.583 -15.944 0 0 -155.47zm98.7867 155.47l-15.9488 0 0 -159.453 15.9488 0 0 159.453zm-8.19747 -167.427c-7.8253,0 -11.6646,-3.6902 -11.5155,-11.0742 0.147899,-6.79001 4.35574,-10.262 12.6247,-10.4087 1.62325,0 3.6902,0.29701 6.20205,0.884968 4.42605,1.03529 6.64453,4.13753 6.64453,9.30308 0,1.77115 -0.369747,3.47198 -1.10803,5.09402 -1.77357,4.1351 -6.05294,6.20084 -12.8466,6.20084l-0.00121229 0zm44.5309 169.642c-7.3816,-0.740706 -13.6588,-2.87554 -18.8256,-6.42147l1.32988 -16.6095c1.91662,2.95434 4.27937,5.68562 7.08581,8.19505 8.11867,7.23492 16.0955,10.6305 23.9184,10.188 7.38282,-0.441272 13.2163,-2.87796 17.4993,-7.30887 4.42363,-4.57516 6.64211,-10.7809 6.64211,-18.6037 0,-5.31587 -1.25835,-11.4415 -3.76536,-18.3831 -2.36032,-6.93912 -5.0225,-12.5472 -7.97441,-16.8289 -8.26657,-11.8149 -17.0508,-24.5851 -26.3527,-38.3155 -1.92026,-2.50943 -5.75714,-7.60224 -11.5155,-15.2821 -1.33109,-1.77236 -2.36274,-3.47077 -3.10224,-5.09281 -2.80523,-6.20084 -3.76536,-11.9604 -2.87918,-17.2763 0.146687,-1.03287 0.516433,-2.43548 1.10682,-4.20663 2.06816,-5.90747 5.24192,-10.1141 9.52371,-12.6235 4.28058,-2.65733 10.776,-4.20905 19.4875,-4.65275 11.8113,-0.589171 20.8925,1.03529 27.2413,4.87581l0 15.2809c-9.00485,-11.2233 -19.1202,-16.5392 -30.3386,-15.9464 -4.5788,0.293373 -8.27142,1.84389 -11.0742,4.64911 -2.65975,2.65975 -3.98842,5.8323 -3.98842,9.5225 0,2.95434 1.1844,6.57301 3.54472,10.856l10.8512 15.0554 15.9476 23.6965c1.03044,1.47778 3.17255,4.50485 6.42026,9.08123 2.36274,3.25014 4.94855,7.53314 7.75135,12.8442 6.05294,11.3724 9.08123,22.1484 9.08123,32.3365 0,13.8807 -4.35574,24.5815 -13.0672,32.111 -8.56237,7.5295 -20.0803,10.4802 -34.5477,8.85696l0 0.00242457zm73.0947 -2.21484l-17.4957 0 55.1456 -127.343c-1.47656,-5.90383 -5.09523,-15.1317 -10.8536,-27.6825l15.5063 -7.74893 55.8075 162.775 -17.0484 0 -26.1357 -76.4006 -31.2297 0c-10.776,23.3268 -18.6777,48.7933 -23.6965,76.4006zm25.692 -81.4983l27.685 0 -13.2879 -38.3106c-2.36274,5.45892 -5.09766,12.4029 -8.19384,20.8161 -1.03529,2.65733 -2.0718,5.53408 -3.10466,8.63753l-3.09739 8.85696 -0.00121229 0zm99.2328 83.7131c-7.38524,-0.740706 -13.66,-2.87554 -18.8268,-6.42147l1.32745 -16.6095c1.92026,2.95434 4.283,5.68562 7.08581,8.19505 8.11989,7.23492 16.0991,10.6305 23.922,10.188 7.3816,-0.441272 13.2163,-2.87796 17.4957,-7.30887 4.42727,-4.57516 6.64332,-10.7809 6.64332,-18.6037 0,-5.31587 -1.25714,-11.4415 -3.76415,-18.3831 -2.36274,-6.93912 -5.02129,-12.5472 -7.97441,-16.8289 -8.26657,-11.8149 -17.0532,-24.5851 -26.3527,-38.3155 -1.91905,-2.50943 -5.75835,-7.60224 -11.5179,-15.2821 -1.33109,-1.77236 -2.36032,-3.47077 -3.10224,-5.09281 -2.80402,-6.20084 -3.76293,-11.9604 -2.87675,-17.2763 0.146687,-1.03287 0.514009,-2.43548 1.10682,-4.20663 2.06816,-5.90747 5.2395,-10.1141 9.52129,-12.6235 4.28179,-2.65733 10.7784,-4.20905 19.4899,-4.65275 11.8113,-0.589171 20.8901,1.03529 27.2413,4.87581l0 15.2809c-9.00485,-11.2233 -19.1214,-16.5392 -30.3411,-15.9464 -4.5788,0.293373 -8.269,1.84389 -11.0742,4.64911 -2.65975,2.65975 -3.98599,5.8323 -3.98599,9.5225 0,2.95434 1.18319,6.57301 3.54472,10.856l10.85 15.0554 15.9488 23.6965c1.02923,1.47778 3.17134,4.50485 6.42026,9.08123 2.36032,3.25014 4.94612,7.53314 7.75256,12.8442 6.05294,11.3724 9.08123,22.1484 9.08123,32.3365 0,13.8807 -4.35574,24.5815 -13.0696,32.111 -8.56237,7.5295 -20.0803,10.4802 -34.5453,8.85696l0 0.00242457zm-139.82 -220.107l-42.1172 0c3.158,-2.94464 6.5718,-6.60695 10.2329,-10.9857 15.0796,-17.8824 22.62,-33.6082 22.62,-47.1785 0,-8.76118 -2.79917,-14.3995 -8.40114,-16.9114 -1.65234,-0.720097 -3.26711,-1.07772 -4.84793,-1.07772 -2.87069,0 -5.63591,1.22077 -8.29567,3.66231 -3.158,2.94222 -4.81035,6.67727 -4.95218,11.2015l-6.14022 -1.40019c1.57961,-5.31345 5.24192,-9.48007 10.9857,-12.495 3.30469,-1.72387 6.5718,-2.5858 9.80254,-2.5858 7.25068,0 12.889,3.05011 16.9114,9.15639 2.22576,3.37379 3.33742,7.17915 3.33742,11.4173 0,2.29849 -0.320043,4.77519 -0.968616,7.43131 -0.93346,3.80536 -3.16043,8.22172 -6.67848,13.2491 -4.09025,5.74623 -11.4173,14.4686 -21.9727,26.1732 -2.29728,2.5858 -4.52546,4.99219 -6.67848,7.21673 12.2077,0.0739494 24.4869,-1.1844 36.8377,-3.77021l0.324892 6.89427 0 0.00242457zm7.85803 -38.0245c0,-5.38497 0.609779,-10.662 1.83055,-15.8337 1.36503,-5.74623 3.23195,-10.5905 5.60076,-14.5414 3.51805,-5.81776 8.11504,-8.72239 13.7861,-8.72239 4.16662,0 7.89925,1.68508 11.2015,5.06129 5.89292,6.10386 9.33702,15.5451 10.3408,28.3275 0.287312,3.58958 0.287312,7.10884 0,10.5554 -1.00377,12.3495 -4.52304,21.866 -10.5542,28.5445 -3.23195,3.58958 -6.82153,5.38255 -10.7687,5.38255 -5.17161,0 -9.58918,-2.86827 -13.2503,-8.61329 -5.45771,-8.39992 -8.18656,-18.4546 -8.18656,-30.1604zm9.15518 -0.214574c0,0.863147 0,1.79539 0,2.80038 0,0.644936 0.0363686,2.00997 0.106681,4.0951 0.289736,6.10143 0.720097,10.5178 1.29472,13.2479 1.29108,6.24812 2.9798,10.5905 5.06372,13.0333 1.64992,1.93723 3.62231,2.90948 5.9208,2.90948 3.37743,0 6.10628,-1.86934 8.18777,-5.60318 1.07651,-1.86571 2.01118,-4.70367 2.80159,-8.50661 1.22077,-5.74744 1.75781,-13.2139 1.61476,-22.4067 -0.144262,-9.69343 -0.897091,-17.0532 -2.26212,-22.0793 -1.2923,-5.02856 -3.01495,-8.68966 -5.1704,-10.9882 -1.57961,-1.72266 -3.41016,-2.5858 -5.49408,-2.5858 -3.4441,0 -6.1378,2.04634 -8.07624,6.14022 -1.00498,2.15544 -1.93966,5.60076 -2.80159,10.3408 -0.863147,4.66851 -1.25714,11.2015 -1.18561,19.6039l0 -0.00121229zm56.0064 -36.6231l7.00337 -2.69249 3.55442 0 0 77.5535 -7.75741 0 0 -69.2603c0,-1.86571 -0.932247,-3.73263 -2.80159,-5.60076l0.00121229 0zm31.1278 56.6598l6.67605 0c-0.287312,1.72144 -0.322468,3.4441 -0.105469,5.1704 0.85951,6.31722 4.16177,10.1941 9.90801,11.6331 0.861935,0.215787 1.72144,0.320043 2.5858,0.320043 5.95959,0 10.4487,-3.76899 13.4636,-11.3082 1.29351,-3.08769 1.93966,-7.54163 1.93966,-13.3582 0,-5.52923 -0.646148,-9.87164 -1.93966,-13.0321 -1.22077,-3.23316 -3.30226,-5.96202 -6.24691,-8.18656 -3.16043,-2.44275 -6.42632,-3.65989 -9.80254,-3.65989 -0.79041,0 -1.54324,0.0691003 -2.2597,0.215787l12.8139 -25.3162 -23.585 3.66353 0.643723 -5.49408 28.2232 0 2.36638 2.04634 -11.0924 21.866c0.14305,0.0715248 0.894666,0.574623 2.26212,1.50808 5.31345,3.59079 9.08123,6.8579 11.3082,9.80254 3.94841,5.1704 5.92565,10.662 5.92565,16.481 0,4.16177 -1.08015,8.3284 -3.23316,12.4926 -2.15544,4.09267 -4.52304,7.14521 -7.10763,9.15639 -2.51428,2.00876 -5.71229,3.33863 -9.58675,3.98357 -1.36503,0.215787 -2.69249,0.32368 -3.98599,0.32368 -5.09766,0 -9.55159,-1.79539 -13.357,-5.38497 -3.73384,-3.58958 -5.67471,-7.90046 -5.81412,-12.9254l0 0.00242457z"/>
 </g>
</svg>
